<svg width="20" height="20" viewBox="0 0 20 20" fill="none" xmlns="http://www.w3.org/2000/svg">
<g id="&#233;&#128;&#154;&#231;&#148;&#168;&#229;&#156;&#186;&#230;&#153;&#175;/&#229;&#188;&#130;&#229;&#184;&#184;" clip-path="url(#clip0_908_5912)">
<g id="Clip path group">
<mask id="mask0_908_5912" style="mask-type:luminance" maskUnits="userSpaceOnUse" x="-1" y="-1" width="22" height="22">
<g id="master_svg0_25_4568/25_4567">
<path id="Vector" d="M20.65 -0.649994H-0.650024V20.65H20.65V-0.649994Z" fill="white"/>
</g>
</mask>
<g mask="url(#mask0_908_5912)">
<g id="Group">
<path id="Union" d="M10 2C14.4183 2 18 5.58172 18 10C18 14.4183 14.4183 18 10 18C5.58172 18 2 14.4183 2 10C2 5.58172 5.58172 2 10 2ZM10 3C6.13401 3 3 6.13401 3 10C3 13.866 6.13401 17 10 17C13.866 17 17 13.866 17 10C17 6.13401 13.866 3 10 3ZM10.6504 14.0498H9.34961V12.75H10.6504V14.0498ZM10.5 11.5H9.5V5.5H10.5V11.5Z" fill="#111111"/>
</g>
</g>
</g>
</g>
<defs>
<clipPath id="clip0_908_5912">
<rect width="20" height="20" fill="white"/>
</clipPath>
</defs>
</svg>
