<svg width="20" height="20" viewBox="0 0 20 20" fill="none" xmlns="http://www.w3.org/2000/svg">
<g id="&#232;&#180;&#173;&#231;&#137;&#169;&#232;&#189;&#166;">
<path id="&#232;&#183;&#175;&#229;&#190;&#132; 4" d="M2.46729 1.25L4.92583 13.8761H15.9642L18.4673 4.81228H3.56322" stroke="#111111" stroke-width="1.5"/>
<path id="&#229;&#189;&#162;&#231;&#138;&#182;&#231;&#187;&#147;&#229;&#144;&#136;" d="M6.04639 16.3184C6.73674 16.3184 7.29639 16.878 7.29639 17.5684C7.29639 18.2587 6.73674 18.8184 6.04639 18.8184C5.35603 18.8184 4.79639 18.2587 4.79639 17.5684C4.79639 16.878 5.35603 16.3184 6.04639 16.3184ZM14.5464 16.3184C15.2367 16.3184 15.7964 16.878 15.7964 17.5684C15.7964 18.2587 15.2367 18.8184 14.5464 18.8184C13.856 18.8184 13.2964 18.2587 13.2964 17.5684C13.2964 16.878 13.856 16.3184 14.5464 16.3184Z" fill="#111111"/>
</g>
</svg>
