<svg width="20" height="20" viewBox="0 0 20 20" fill="none" xmlns="http://www.w3.org/2000/svg">
<g id="&#229;&#149;&#134;&#229;&#147;&#129;&#229;&#175;&#185;&#230;&#175;&#148;">
<g id="&#229;&#149;&#134;&#229;&#147;&#129;&#229;&#175;&#185;&#230;&#175;&#148;_2">
<path id="&#229;&#149;&#134;&#229;&#147;&#129; &#229;&#175;&#185;&#230;&#175;&#148;" d="M12.1152 13.6211H13.9199V14.6523H12.1152V17.4238C12.8243 17.1016 13.8877 16.7148 13.8877 16.7148C13.8877 17.5205 13.9199 17.875 13.9199 17.875C13.3461 18.0025 12.3621 18.3824 12.3408 18.3906C12.1864 18.4524 12.1204 18.4847 12.1152 18.4873C11.8615 18.6142 11.3888 18.8661 11.374 18.874C11.4356 18.8432 11.3171 18.9025 11.3096 18.9062L10.6963 18.0039C10.9382 17.8346 10.9813 17.4473 10.9873 17.2646V11.3652H12.1152V13.6211ZM9.31055 12.7188H10.0518V13.7178H9.31055V17.4883C9.37497 18.8096 8.02148 18.8096 8.02148 18.8096H6.7002C6.60351 18.2295 6.47461 17.7783 6.47461 17.7783C6.72959 17.8102 7.55217 17.8105 7.57031 17.8105C8.21019 17.8425 8.18305 17.1757 8.18262 17.166V13.7178H5.89453V12.7188H8.18262V11.2686H9.31055V12.7188ZM15.499 14.0723C16.5233 13.2401 17.3886 12.3443 17.4004 12.332L18.2383 13.1055C17.1463 14.1653 15.5104 15.3851 15.499 15.3936V17.3584C15.5289 17.8066 15.9824 17.7783 15.9824 17.7783H16.498C16.9776 17.8101 17.0449 17.2393 17.0459 17.2305C17.1098 16.7194 17.1737 16.0183 17.1748 16.0059C17.5616 16.1026 18.2383 16.3281 18.2383 16.3281C18.206 16.7471 18.1094 17.4883 18.1094 17.4883C18.0771 17.7139 18.0449 17.8428 18.0449 17.8428C17.8848 18.803 16.7074 18.7777 16.6914 18.7773H15.5635C14.311 18.8416 14.3707 17.5617 14.3711 17.5527V11.2686H15.499V14.0723ZM5.70117 12.9443C5.44332 14.6845 4.89551 15.877 4.89551 15.877C5.56874 16.8067 6.11441 17.5769 6.12012 17.585L5.18555 18.1328L4.31543 16.876C3.83195 17.6172 2.7041 18.7129 2.7041 18.7129C2.64004 18.5527 2.44866 18.2016 2.44629 18.1973C2.25478 17.8462 2.1581 17.6847 2.15625 17.6816C3.11541 16.8184 3.66226 15.9234 3.6709 15.9092L2.25293 13.8789L3.09082 13.3633L4.1543 14.8457C4.47331 13.9844 4.60287 12.9649 4.60547 12.9443H2.38184V11.9131H5.70117V12.9443ZM7.18359 15.0713C7.63255 15.6806 7.82622 15.9708 7.82812 15.9736L6.92578 16.5537L6.25391 15.5459C5.88988 15.0111 5.67256 14.7216 5.66895 14.7168L6.50684 14.1689C6.73244 14.459 7.18359 15.0713 7.18359 15.0713ZM6.8291 1.98633C6.86066 2.081 6.86131 2.11391 6.86133 2.11523H9.95508V2.95312H7.24805L8.24707 3.14648L7.76367 3.85547H9.56836V7.88379C9.63282 9.04401 8.47266 9.01172 8.47266 9.01172H7.3125C7.28023 8.88257 7.21582 8.59277 7.21582 8.59277C7.15144 8.33524 7.11914 8.20605 7.11914 8.20605H4.54102V6.14355L3.99316 6.49805C3.92865 6.40128 3.7998 6.20801 3.7998 6.20801C3.70321 6.0792 3.63867 5.98242 3.63867 5.98242V9.1084H2.63965V3.85547H4.41211L3.96094 3.14648L4.95996 2.95312H2.28516V2.11523H5.60449C5.60447 2.08297 5.57227 1.98633 5.57227 1.98633C5.5078 1.79296 5.37891 1.50293 5.37891 1.50293L6.63574 1.40625C6.69958 1.59775 6.82665 1.97899 6.8291 1.98633ZM13.9844 9.1084H13.0176V8.68945H11.7607V9.1084H10.793V5.43457H13.9844V9.1084ZM17.9482 9.07617H16.9814V8.68945H15.6602V9.1084H14.6934V5.43457H17.9482V9.07617ZM8.2793 6.46582L7.69922 6.04688V8.17383H8.05371C8.60159 8.17383 8.56934 7.69043 8.56934 7.69043V6.01465L8.2793 6.46582ZM11.7607 7.81934H13.0176V6.33691H11.7607V7.81934ZM15.6602 7.81934H16.9814V6.33691H15.6602V7.81934ZM5.41113 7.43262H6.79688V6.59473H5.41113V7.43262ZM5.8623 5.17676C5.38022 5.53028 4.96226 5.8197 4.95996 5.82129H7.34473L6.37793 5.17676L6.8291 4.66113H5.34668L5.8623 5.17676ZM3.63867 5.66016C4.21743 5.33862 5.08482 4.66428 5.08887 4.66113H3.63867V5.66016ZM7.11914 4.66113C7.40503 4.81996 7.91035 5.16683 7.9248 5.17676C8.33397 5.42855 8.55905 5.55759 8.56934 5.56348V4.66113H7.11914ZM17.2393 4.79004H11.5029V1.79297H17.2393V4.79004ZM5.02441 2.95312C5.3746 3.43065 5.59907 3.84542 5.60449 3.85547H6.60352C6.73158 3.66337 6.95507 3.31223 6.95801 3.30762C7.08508 3.08525 7.18088 2.95676 7.18359 2.95312H5.02441ZM12.5986 3.85547H16.1436V2.72754H12.5986V3.85547Z" fill="#111111"/>
</g>
</g>
</svg>
