<svg width="20" height="20" viewBox="0 0 20 20" fill="none" xmlns="http://www.w3.org/2000/svg">
<g id="&#229;&#174;&#162;&#230;&#156;&#141;">
<path id="Vector" fill-rule="evenodd" clip-rule="evenodd" d="M2 9.75V13.831H3.5V9.75C3.5 7.95508 4.1346 6.42301 5.40381 5.15381C6.67301 3.8846 8.20507 3.25 10 3.25C11.7949 3.25 13.327 3.8846 14.5962 5.15381C15.8654 6.42301 16.5 7.95508 16.5 9.75V13.831H18V9.75C18 7.54086 17.219 5.65524 15.6569 4.09315C14.0948 2.53105 12.2091 1.75 10 1.75C7.79086 1.75 5.90524 2.53105 4.34315 4.09315C2.78105 5.65524 2 7.54086 2 9.75Z" fill="#111111"/>
<path id="Vector_2" fill-rule="evenodd" clip-rule="evenodd" d="M6.22169 11.4355H2V17.5266H6.22169V11.4355ZM3.5 16.0266V12.9355H4.72169V16.0266H3.5Z" fill="#111111"/>
<path id="Vector_3" fill-rule="evenodd" clip-rule="evenodd" d="M18 11.4337H13.7855V17.5212H18V11.4337ZM15.2855 16.0212V12.9337H16.5V16.0212H15.2855Z" fill="#111111"/>
</g>
</svg>
