<svg width="20" height="20" viewBox="0 0 20 20" fill="none" xmlns="http://www.w3.org/2000/svg">
<g id="&#231;&#173;&#155;&#233;&#128;&#137;&#229;&#156;&#186;&#230;&#153;&#175;/&#231;&#173;&#155;&#233;&#128;&#137;&#230;&#160;&#143;_&#229;&#140;&#186;&#229;&#159;&#159;">
<g id="&#231;&#173;&#155;&#233;&#128;&#137;&#229;&#156;&#186;&#230;&#153;&#175;/&#231;&#173;&#155;&#233;&#128;&#137;&#230;&#160;&#143;_&#229;&#140;&#186;&#229;&#159;&#159;_2">
<path id="Union" d="M10 2C13.866 2 17 5.13401 17 9C17 10.7612 16.3482 12.3693 15.2744 13.5996L15.2637 13.6104C15.1563 13.7329 15.0463 13.853 14.9307 13.9678L10.0732 19.1719C10.0337 19.2142 9.96629 19.2142 9.92676 19.1719L5.07617 13.9756C3.79418 12.7068 3 10.9462 3 9C3 5.13401 6.13401 2 10 2ZM10 4C7.23858 4 5 6.23858 5 9C5 10.3038 5.49682 11.4883 6.31543 12.3799L6.51074 12.582L9.99902 16.3193L13.4688 12.6035L13.4951 12.5752L13.5215 12.5479C13.593 12.4769 13.6703 12.3941 13.7598 12.292L13.8027 12.2422C14.5502 11.3669 15 10.2383 15 9C15 6.23858 12.7614 4 10 4ZM10 7C11.1046 7 12 7.89543 12 9C12 10.1046 11.1046 11 10 11C8.89543 11 8 10.1046 8 9C8 7.89543 8.89543 7 10 7Z" fill="#999999"/>
</g>
</g>
</svg>
