<svg width="20" height="20" viewBox="0 0 20 20" fill="none" xmlns="http://www.w3.org/2000/svg">
<g id="&#232;&#182;&#179;&#232;&#191;&#185;">
<g id="&#232;&#182;&#179;&#232;&#191;&#185;_2">
<path id="Union" d="M10.5234 4.24969C12.3237 4.24973 13.5597 4.63171 14.4229 5.3161C15.2821 5.99754 15.662 6.89603 15.9238 7.65887C16.4838 9.29056 16.6196 12.5539 15.3486 15.3698C14.7475 16.7014 14.1705 17.6916 13.4268 18.3356C12.6384 19.0182 11.7403 19.2497 10.665 19.2497C9.43735 19.2495 8.51499 18.656 7.90332 17.8434C7.30702 17.0513 6.99779 16.0492 6.91406 15.1296C6.87478 14.698 6.86142 14.317 6.85254 13.9821C6.84344 13.6389 6.83988 13.3668 6.82227 13.11C6.78892 12.6243 6.7094 12.2778 6.4834 11.9089C6.36163 11.7101 6.17159 11.4762 5.91406 11.1677C5.67035 10.8757 5.37788 10.5292 5.11523 10.1559C4.59617 9.41821 4.08757 8.43014 4.30176 7.2663C4.5131 6.1188 5.23183 5.33137 6.33203 4.86395C7.38052 4.41863 8.79592 4.24972 10.5234 4.24969ZM10.5234 5.74969C8.85124 5.74972 7.683 5.92036 6.91895 6.24481C6.2068 6.54734 5.88355 6.96139 5.77734 7.53778C5.67423 8.09794 5.89568 8.65856 6.3418 9.29266C6.56172 9.6052 6.81056 9.90139 7.06543 10.2067C7.30646 10.4955 7.57293 10.815 7.7627 11.1247C8.15966 11.7727 8.27553 12.3834 8.31836 13.0075C8.33879 13.3054 8.34322 13.627 8.35156 13.9421C8.36014 14.2657 8.37325 14.6099 8.4082 14.9938C8.47306 15.7057 8.71108 16.4223 9.10156 16.9411C9.4767 17.4395 9.98135 17.7496 10.665 17.7497C11.5014 17.7497 12.0093 17.5793 12.4453 17.2018C12.9258 16.7857 13.393 16.0562 13.9814 14.7526C15.0895 12.2977 14.9466 9.42934 14.5059 8.1452C14.2674 7.45039 14.0018 6.89695 13.4912 6.49188C12.9841 6.08976 12.1233 5.74973 10.5234 5.74969ZM8.73145 0.834656C9.65072 0.783507 10.8816 0.781401 12.0586 0.994812C13.2387 1.20879 14.3281 1.63324 15.1123 1.99579C15.5066 2.17808 15.8303 2.34732 16.0566 2.47235C16.1697 2.53483 16.2591 2.58706 16.3213 2.62372L16.4141 2.67938C16.4165 2.6809 16.4194 2.68233 16.4209 2.68329L16.4229 2.68427H16.4238C16.4239 2.68438 16.4214 2.6897 16.0273 3.32196L15.6309 3.9577L15.6289 3.95673C15.6265 3.95524 15.6221 3.95247 15.6162 3.94891C15.6043 3.94169 15.5848 3.93062 15.5596 3.91571C15.5087 3.88568 15.4309 3.841 15.3311 3.78583C15.1307 3.67513 14.8392 3.52207 14.4824 3.35712C13.7632 3.02465 12.8014 2.65361 11.791 2.4704C10.7778 2.28669 9.67858 2.28469 8.81543 2.3327C8.38772 2.35651 8.02505 2.39198 7.77148 2.42157C7.64523 2.43631 7.54597 2.45032 7.47949 2.45966C7.44634 2.46431 7.42047 2.46796 7.4043 2.4704C7.39642 2.47159 7.39022 2.47181 7.38672 2.47235C7.38503 2.4726 7.3834 2.47323 7.38281 2.47333L7.14551 0.991882H7.14648L7.14844 0.990906C7.15011 0.99064 7.15253 0.990357 7.15527 0.989929C7.1612 0.989005 7.17012 0.987614 7.18066 0.986023C7.20171 0.982848 7.23211 0.978718 7.27051 0.973328C7.3476 0.962507 7.45869 0.948529 7.59766 0.932312C7.87557 0.899881 8.26824 0.860445 8.73145 0.834656ZM4.5 1.57587C5.10747 1.57592 5.59961 2.06897 5.59961 2.67645C5.5994 3.28375 5.10734 3.77601 4.5 3.77606C3.89262 3.77606 3.39962 3.28379 3.39941 2.67645C3.39941 2.06894 3.89249 1.57587 4.5 1.57587Z" fill="#111111"/>
</g>
</g>
</svg>
