<svg width="20" height="20" viewBox="0 0 20 20" fill="none" xmlns="http://www.w3.org/2000/svg">
<g id="&#233;&#128;&#154;&#231;&#148;&#168;&#229;&#156;&#186;&#230;&#153;&#175;/info">
<path id="Vector" d="M10 17.5C14.1421 17.5 17.5 14.1421 17.5 10C17.5 5.85786 14.1421 2.5 10 2.5C5.85786 2.5 2.5 5.85786 2.5 10C2.5 14.1421 5.85786 17.5 10 17.5Z" stroke="#111111"/>
<g id="Group">
<g id="Group_2">
<path id="Vector_2" d="M10.0957 5.37149C9.20215 5.37149 8.50003 5.65234 7.98941 6.23956C7.52984 6.77572 7.28729 7.46507 7.28729 8.33313H8.05323C8.05323 7.66932 8.20642 7.13316 8.5128 6.75019C8.85747 6.29062 9.3681 6.06084 10.0574 6.06084C10.6574 6.06084 11.1298 6.21403 11.4617 6.54594C11.7681 6.86508 11.934 7.29911 11.934 7.84804C11.934 8.23101 11.7936 8.58845 11.5255 8.93312C11.4234 9.06078 11.2191 9.26503 10.9383 9.54588C10.3255 10.082 9.94256 10.5544 9.76384 10.9373C9.61065 11.2437 9.53406 11.5884 9.53406 11.9586V12.3288H10.3128V11.9586C10.3128 11.6012 10.4021 11.282 10.5808 10.9756C10.7085 10.7586 10.9128 10.5161 11.2191 10.248C11.7553 9.76289 12.0872 9.44375 12.2276 9.26503C12.5468 8.84376 12.7127 8.35867 12.7127 7.82251C12.7127 7.0821 12.4829 6.49487 12.0234 6.06084C11.5383 5.60127 10.9 5.37149 10.0957 5.37149Z" fill="#111111"/>
<path id="Vector_3" d="M10.0957 5.5688C9.25464 5.5688 8.60215 5.83555 8.13824 6.36904C7.70244 6.87747 7.48454 7.53218 7.48454 8.33316H7.28725V8.13587H8.0532V8.33316H7.85591C7.85591 7.61469 8.02351 7.04596 8.35871 6.62696L8.51276 6.75021L8.35493 6.63184C8.73906 6.11966 9.30656 5.86357 10.0574 5.86357C10.7246 5.86357 11.2392 6.04453 11.6011 6.40645C11.9546 6.77455 12.1313 7.25509 12.1313 7.84806C12.1313 8.26643 11.9812 8.6685 11.6812 9.05427C11.6074 9.14647 11.4063 9.35685 11.0777 9.6854L11.0731 9.69005L11.0682 9.69437C10.4974 10.1938 10.1222 10.636 9.94258 11.0208L9.94145 11.0232L9.94026 11.0256C9.80096 11.3042 9.73131 11.6152 9.73131 11.9586V12.3288H9.53402V12.1315H10.3127V12.3288H10.1154V11.9586C10.1154 11.5741 10.2138 11.2133 10.4104 10.8762C10.5581 10.6252 10.7844 10.3663 11.0892 10.0995C11.6238 9.61577 11.9516 9.29698 12.0725 9.14316C12.3677 8.75334 12.5154 8.31313 12.5154 7.82253C12.5154 7.13881 12.3062 6.5994 11.8879 6.20429C11.4407 5.78063 10.8433 5.5688 10.0957 5.5688ZM10.0957 5.17422C10.9481 5.17422 11.6358 5.42196 12.1588 5.91743C12.6596 6.39039 12.91 7.02542 12.91 7.82253C12.91 8.40152 12.7342 8.92299 12.3827 9.38694C12.2481 9.55832 11.9035 9.89483 11.349 10.3965C11.0762 10.6352 10.8769 10.8614 10.7512 11.0751C10.5904 11.3507 10.51 11.6452 10.51 11.9586V12.5261H9.33673V11.9586C9.33673 11.5531 9.42027 11.1833 9.58734 10.8491L9.7638 10.9374L9.58502 10.8539C9.78805 10.4189 10.1958 9.93337 10.8083 9.39742L10.9382 9.5459L10.7987 9.40639C11.117 9.08815 11.3073 8.89002 11.3697 8.81202C11.6144 8.4975 11.7367 8.17618 11.7367 7.84806C11.7367 7.36091 11.5985 6.97338 11.3221 6.68546C11.0373 6.40059 10.6157 6.25815 10.0574 6.25815C9.43808 6.25815 8.97581 6.46163 8.67059 6.86858L8.66874 6.87105L8.66682 6.87345C8.38926 7.2204 8.25048 7.70697 8.25048 8.33316V8.53044H7.08997L7.08997 8.33316C7.08997 7.43487 7.34014 6.69386 7.84049 6.11013C8.38304 5.48619 9.13478 5.17422 10.0957 5.17422Z" fill="#111111"/>
<path id="Vector_4" fill-rule="evenodd" clip-rule="evenodd" d="M9.26019 13.5269H10.5426V14.8093H9.26019V13.5269Z" fill="#111111"/>
</g>
</g>
</g>
</svg>
