<svg width="20" height="20" viewBox="0 0 20 20" fill="none" xmlns="http://www.w3.org/2000/svg">
<g id="&#229;&#174;&#154;&#228;&#189;&#141;">
<path id="Vector" fill-rule="evenodd" clip-rule="evenodd" d="M18.5714 8.64859C18.5714 11.6986 15.9503 15.3536 10.708 19.6136C10.4575 19.8172 10.3273 19.9192 10.1874 19.957C10.0649 19.9901 9.93509 19.9901 9.81264 19.957C9.6727 19.9192 9.54256 19.8172 9.29206 19.6136C4.04974 15.3536 1.42859 11.6986 1.42859 8.64859C1.42859 3.87211 5.26615 0 10 0C14.7339 0 18.5714 3.87211 18.5714 8.64859ZM10 12.7804C10.0648 12.7804 10.1295 12.7788 10.1941 12.7756C10.2588 12.7723 10.3234 12.7675 10.3878 12.761C10.4522 12.7545 10.5165 12.7465 10.5805 12.7368C10.6445 12.7271 10.7083 12.7158 10.7718 12.7029C10.8353 12.69 10.8985 12.6755 10.9613 12.6595C11.0241 12.6434 11.0864 12.6258 11.1484 12.6067C11.2104 12.5875 11.2718 12.5668 11.3328 12.5445C11.3937 12.5223 11.4541 12.4985 11.5139 12.4732C11.5738 12.4479 11.6329 12.4212 11.6915 12.3929C11.75 12.3647 11.8078 12.335 11.8649 12.3039C11.922 12.2727 11.9783 12.2402 12.0338 12.2062C12.0894 12.1723 12.1441 12.137 12.1979 12.1003C12.2517 12.0636 12.3046 12.0255 12.3566 11.9862C12.4086 11.9468 12.4597 11.9062 12.5097 11.8643C12.5598 11.8224 12.6088 11.7793 12.6567 11.7349C12.7047 11.6906 12.7516 11.645 12.7974 11.5983C12.8431 11.5516 12.8878 11.5038 12.9313 11.4549C12.9747 11.4059 13.017 11.3559 13.0581 11.3049C13.0992 11.2538 13.139 11.2017 13.1775 11.1487C13.2161 11.0956 13.2534 11.0416 13.2894 10.9867C13.3253 10.9318 13.36 10.876 13.3932 10.8194C13.4265 10.7627 13.4584 10.7052 13.4889 10.647C13.5195 10.5887 13.5486 10.5298 13.5762 10.4701C13.6039 10.4103 13.6302 10.35 13.6549 10.2889C13.6797 10.2279 13.703 10.1663 13.7248 10.1041C13.7466 10.0419 13.7669 9.97923 13.7857 9.91603C13.8045 9.85282 13.8218 9.78918 13.8375 9.72511C13.8532 9.66103 13.8674 9.59661 13.8801 9.53182C13.8927 9.46704 13.9037 9.40198 13.9132 9.33664C13.9227 9.2713 13.9307 9.20577 13.937 9.14003C13.9434 9.0743 13.9481 9.00845 13.9513 8.94247C13.9545 8.8765 13.9561 8.81049 13.9561 8.74444C13.9561 8.67838 13.9545 8.61237 13.9513 8.5464C13.9481 8.48042 13.9434 8.41457 13.937 8.34884C13.9307 8.2831 13.9227 8.21757 13.9132 8.15223C13.9037 8.08689 13.8927 8.02183 13.8801 7.95705C13.8674 7.89227 13.8532 7.82784 13.8375 7.76376C13.8218 7.69969 13.8045 7.63605 13.7857 7.57284C13.7669 7.50964 13.7466 7.44694 13.7248 7.38474C13.703 7.32255 13.6797 7.26095 13.6549 7.19992C13.6302 7.1389 13.6039 7.07853 13.5762 7.01882C13.5486 6.95911 13.5195 6.90013 13.4889 6.84187C13.4584 6.78362 13.4265 6.72617 13.3932 6.66951C13.36 6.61286 13.3253 6.55707 13.2894 6.50215C13.2534 6.44723 13.2161 6.39324 13.1775 6.34019C13.139 6.28713 13.0992 6.23508 13.0581 6.18402C13.017 6.13296 12.9747 6.08296 12.9313 6.03402C12.8878 5.98508 12.8431 5.93725 12.7974 5.89055C12.7516 5.84384 12.7047 5.79831 12.6567 5.75395C12.6088 5.70959 12.5598 5.66646 12.5097 5.62456C12.4597 5.58266 12.4086 5.54203 12.3566 5.50268C12.3046 5.46334 12.2517 5.42531 12.1979 5.38862C12.1441 5.35192 12.0894 5.31659 12.0338 5.28263C11.9783 5.24868 11.922 5.21613 11.8649 5.18499C11.8078 5.15386 11.75 5.12417 11.6915 5.09593C11.6329 5.06769 11.5738 5.04093 11.5139 5.01565C11.4541 4.99037 11.3937 4.96661 11.3328 4.94435C11.2718 4.9221 11.2104 4.90139 11.1484 4.88222C11.0864 4.86304 11.0241 4.84543 10.9613 4.82938C10.8985 4.81333 10.8353 4.79886 10.7718 4.78598C10.7083 4.77309 10.6445 4.7618 10.5805 4.75211C10.5165 4.74242 10.4522 4.73434 10.3878 4.72786C10.3234 4.72139 10.2588 4.71653 10.1941 4.71329C10.1295 4.71005 10.0648 4.70843 10 4.70843C9.93528 4.70843 9.87058 4.71005 9.80591 4.71329C9.74124 4.71653 9.67669 4.72139 9.61226 4.72786C9.54783 4.73434 9.48359 4.74242 9.41955 4.75211C9.35551 4.7618 9.29174 4.77309 9.22824 4.78598C9.16474 4.79886 9.10159 4.81333 9.03878 4.82938C8.97598 4.84543 8.9136 4.86304 8.85164 4.88222C8.78969 4.90139 8.72823 4.9221 8.66727 4.94436C8.60631 4.96661 8.54593 4.99037 8.48611 5.01565C8.4263 5.04093 8.36712 5.06769 8.3086 5.09593C8.25007 5.12417 8.19226 5.15386 8.13516 5.18499C8.07806 5.21613 8.02174 5.24868 7.96621 5.28263C7.91068 5.31659 7.856 5.35192 7.80216 5.38862C7.74833 5.42531 7.69541 5.46334 7.64341 5.50268C7.59141 5.54203 7.54038 5.58265 7.49034 5.62456C7.44029 5.66646 7.39128 5.70959 7.34331 5.75395C7.29533 5.79831 7.24846 5.84384 7.20268 5.89055C7.1569 5.93725 7.11227 5.98508 7.06879 6.03402C7.02531 6.08296 6.98303 6.13296 6.94196 6.18402C6.90089 6.23508 6.86107 6.28713 6.8225 6.34019C6.78393 6.39324 6.74666 6.44723 6.71069 6.50215C6.67472 6.55707 6.6401 6.61286 6.60681 6.66951C6.57353 6.72617 6.54162 6.78362 6.5111 6.84187C6.48058 6.90013 6.45148 6.95911 6.4238 7.01882C6.39612 7.07853 6.36989 7.1389 6.34511 7.19992C6.32034 7.26095 6.29705 7.32255 6.27523 7.38474C6.25342 7.44694 6.23312 7.50964 6.21433 7.57284C6.19553 7.63605 6.17827 7.69969 6.16254 7.76376C6.14681 7.82784 6.13262 7.89227 6.11999 7.95705C6.10736 8.02183 6.0963 8.08689 6.0868 8.15223C6.0773 8.21757 6.06938 8.2831 6.06303 8.34884C6.05668 8.41457 6.05192 8.48043 6.04874 8.5464C6.04557 8.61237 6.04398 8.67838 6.04398 8.74444C6.04398 8.81049 6.04557 8.8765 6.04874 8.94247C6.05192 9.00845 6.05668 9.0743 6.06303 9.14003C6.06938 9.20577 6.0773 9.2713 6.0868 9.33664C6.0963 9.40198 6.10736 9.46704 6.11999 9.53182C6.13262 9.59661 6.14681 9.66103 6.16254 9.72511C6.17827 9.78918 6.19553 9.85282 6.21433 9.91603C6.23312 9.97923 6.25342 10.0419 6.27523 10.1041C6.29705 10.1663 6.32034 10.2279 6.34511 10.2889C6.36989 10.35 6.39612 10.4103 6.4238 10.4701C6.45148 10.5298 6.48058 10.5887 6.5111 10.647C6.54162 10.7052 6.57353 10.7627 6.60681 10.8194C6.6401 10.876 6.67472 10.9318 6.71069 10.9867C6.74666 11.0416 6.78393 11.0956 6.8225 11.1487C6.86107 11.2017 6.90089 11.2538 6.94196 11.3049C6.98303 11.3559 7.02531 11.4059 7.06879 11.4549C7.11227 11.5038 7.1569 11.5516 7.20268 11.5983C7.24846 11.645 7.29533 11.6906 7.34331 11.7349C7.39128 11.7793 7.44029 11.8224 7.49034 11.8643C7.54038 11.9062 7.59141 11.9468 7.64341 11.9862C7.69541 12.0255 7.74833 12.0636 7.80216 12.1003C7.856 12.137 7.91068 12.1723 7.96621 12.2062C8.02174 12.2402 8.07806 12.2727 8.13516 12.3039C8.19226 12.335 8.25007 12.3647 8.3086 12.3929C8.36712 12.4212 8.4263 12.4479 8.48611 12.4732C8.54593 12.4985 8.60631 12.5223 8.66727 12.5445C8.72823 12.5668 8.78969 12.5875 8.85164 12.6067C8.9136 12.6258 8.97598 12.6434 9.03878 12.6595C9.10159 12.6755 9.16474 12.69 9.22824 12.7029C9.29174 12.7158 9.35551 12.7271 9.41955 12.7368C9.48359 12.7465 9.54783 12.7545 9.61226 12.761C9.6767 12.7675 9.74125 12.7723 9.80591 12.7756C9.87058 12.7788 9.93528 12.7804 10 12.7804Z" fill="#D8D8D8"/>
</g>
</svg>
