<svg preserveAspectRatio="none" width="100%" height="100%" overflow="visible" style="display: block;" viewBox="0 0 24 24" fill="none" xmlns="http://www.w3.org/2000/svg">
<g id="Frame 983">
<path id="Union" d="M12 8C12.2761 8 12.5 8.22386 12.5 8.5V11.5H15.5C15.7761 11.5 16 11.7239 16 12C16 12.2761 15.7761 12.5 15.5 12.5H12.5V15.5C12.5 15.7761 12.2761 16 12 16C11.7239 16 11.5 15.7761 11.5 15.5V12.5H8.5C8.22386 12.5 8 12.2761 8 12C8 11.7239 8.22386 11.5 8.5 11.5H11.5V8.5C11.5 8.22386 11.7239 8 12 8Z" fill="var(--fill-0, #111111)"/>
</g>
</svg>
