<svg width="14" height="14" viewBox="0 0 14 14" fill="none" xmlns="http://www.w3.org/2000/svg">
<g id="&#231;&#186;&#162;&#231;&#130;&#185;=&#230;&#149;&#176;&#229;&#173;&#151;">
<circle id="Ellipse 1" cx="7" cy="7" r="7" fill="#FF0F27"/>
<path id="5" d="M5.24676 3.574H8.98176V4.231H5.84976L5.63376 6.382H5.66976C5.84976 6.166 6.08376 6.004 6.36276 5.896C6.61476 5.788 6.88476 5.743 7.18176 5.743C7.79376 5.743 8.28876 5.932 8.66676 6.319C9.04476 6.715 9.24276 7.255 9.24276 7.948C9.24276 8.596 9.00876 9.127 8.54976 9.541C8.11776 9.928 7.57776 10.126 6.94776 10.126C6.38076 10.126 5.89476 9.973 5.49876 9.667C5.04876 9.325 4.80576 8.857 4.76076 8.272H5.48976C5.52576 8.677 5.68776 8.992 5.97576 9.208C6.22776 9.397 6.56076 9.496 6.95676 9.496C7.40676 9.496 7.77576 9.352 8.07276 9.064C8.36076 8.776 8.51376 8.407 8.51376 7.957C8.51376 7.444 8.36976 7.048 8.09976 6.769C7.83876 6.481 7.46976 6.346 7.00176 6.346C6.69576 6.346 6.42576 6.409 6.18276 6.544C5.93076 6.67 5.73276 6.868 5.60676 7.12H4.90476L5.24676 3.574Z" fill="white"/>
</g>
</svg>
