<svg width="20" height="20" viewBox="0 0 20 20" fill="none" xmlns="http://www.w3.org/2000/svg">
<g id="&#229;&#136;&#183;&#230;&#150;&#176;">
<g id="Group">
<path id="Vector" fill-rule="evenodd" clip-rule="evenodd" d="M4.01815 7.44025C3.89075 7.74349 3.78493 8.06051 3.70068 8.39132L4.66975 8.63811L4.67017 8.63647C4.68918 8.56191 4.70949 8.48819 4.73109 8.41528C5.05753 7.31375 5.68032 6.40095 6.59945 5.67688C7.59541 4.89229 8.72892 4.5 9.99996 4.5C11.2699 4.5 12.4026 4.89167 13.3981 5.675C14.3776 6.44576 15.021 7.43099 15.3283 8.63068L15.3286 8.63203L16.2974 8.38412L16.2964 8.38031C16.212 8.05098 16.1061 7.73535 15.9788 7.43342C15.5583 6.43578 14.9042 5.58768 14.0165 4.88912C12.8395 3.96304 11.5007 3.5 9.99996 3.5C8.49787 3.5 7.15809 3.96378 5.98063 4.89135C5.09215 5.59127 4.43799 6.44091 4.01815 7.44025ZM15.3226 11.391L15.3223 11.3924C15.0109 12.5863 14.3665 13.5662 13.3889 14.3321C12.3952 15.1106 11.2656 15.4999 9.99997 15.4999C8.73514 15.4999 7.60604 15.1111 6.61267 14.3334C5.63515 13.5682 4.9904 12.5888 4.67839 11.3953L3.7109 11.6482C3.79722 11.9783 3.90512 12.2949 4.03443 12.5972C4.45785 13.5872 5.11179 14.4284 5.99623 15.1208C7.17065 16.0402 8.50523 16.4999 9.99997 16.4999C11.4956 16.4999 12.8309 16.0397 14.0057 15.1193C14.8906 14.4259 15.5446 13.5836 15.9676 12.5925C16.0967 12.2899 16.2043 11.9735 16.2903 11.6432L15.3226 11.391Z" fill="#111111"/>
</g>
<path id="Vector_2" fill-rule="evenodd" clip-rule="evenodd" d="M16.4 10.8408L16.9673 13.175C17.0051 13.3303 17.0241 13.4108 17.001 13.4579C16.9817 13.4972 16.9457 13.5267 16.9034 13.5379C16.8527 13.5513 16.7775 13.5168 16.6327 13.4492L13.9126 12.1808C13.7677 12.1132 13.693 12.0779 13.6706 12.0304C13.652 11.9908 13.6514 11.9442 13.6691 11.9043C13.6904 11.8562 13.7642 11.8191 13.9075 11.7482L16.0603 10.6823C16.1522 10.6368 16.1995 10.6137 16.2407 10.6174C16.2758 10.6205 16.3089 10.6359 16.3338 10.6608C16.3631 10.69 16.3758 10.7411 16.4 10.8408Z" fill="#111111"/>
<path id="Vector_3" fill-rule="evenodd" clip-rule="evenodd" d="M3.60176 9.15949L3.03447 6.82523C2.99672 6.66989 2.97763 6.58946 3.00078 6.54231C3.02004 6.50308 3.05608 6.47354 3.09833 6.46237C3.14912 6.44895 3.22423 6.48348 3.36911 6.55104L6.08921 7.81944C6.23409 7.887 6.30882 7.92234 6.33118 7.96987C6.34978 8.00942 6.35032 8.05602 6.33265 8.09599C6.31141 8.14403 6.23753 8.18111 6.09427 8.25204L3.94146 9.3179C3.84956 9.3634 3.80225 9.38654 3.76109 9.38289C3.726 9.37978 3.69285 9.36433 3.66792 9.33945C3.63867 9.31026 3.62598 9.25914 3.60176 9.15949Z" fill="#111111"/>
</g>
</svg>
