<svg width="20" height="20" viewBox="0 0 20 20" fill="none" xmlns="http://www.w3.org/2000/svg">
<g id="&#231;&#167;&#159;">
<path id="Vector" d="M16.551 2.71001H9.70005V15.681H8.22105V17.228H17.86V15.681H16.551V2.71001ZM11.264 15.681V12.825H14.936V15.681H11.264ZM11.264 11.312V8.47301H14.936V11.312H11.264ZM11.264 6.96001V4.22301H14.936V6.96001H11.264ZM2.52605 6.58601V8.13301H4.90605C4.31105 9.88401 3.35905 11.465 2.05005 12.876L2.71305 14.559C3.66505 13.352 4.46405 12.009 5.07605 10.53V17.789H6.67405V10.496C7.09905 11.023 7.60905 11.703 8.18705 12.553L9.07105 11.193C8.27205 10.343 7.47305 9.57801 6.67405 8.86401V8.13301H8.90105V6.58601H6.67405V4.20601C7.42205 4.05301 8.15305 3.88301 8.85005 3.69601L8.28905 2.20001C6.62305 2.72701 4.73605 3.08401 2.59405 3.27101L2.91705 4.71601C3.66505 4.64801 4.37905 4.56301 5.07605 4.46101V6.58601H2.52605Z" fill="#111111"/>
</g>
</svg>
