<svg width="20" height="20" viewBox="0 0 20 20" fill="none" xmlns="http://www.w3.org/2000/svg">
<g id="&#230;&#144;&#156;&#231;&#180;&#162;">
<g id="Group">
<path id="Union" d="M9.87988 1.75977C10.0066 1.76599 10.1335 1.77468 10.2598 1.78711C10.3858 1.79953 10.5114 1.81541 10.6367 1.83398C10.7621 1.85258 10.8874 1.87372 11.0117 1.89844C11.136 1.92317 11.2599 1.95163 11.3828 1.98242C11.5058 2.01324 11.6286 2.04717 11.75 2.08398C11.8713 2.12077 11.992 2.16044 12.1113 2.20312C12.2306 2.24581 12.3488 2.29136 12.4658 2.33984C12.583 2.38838 12.6988 2.43992 12.8135 2.49414C12.9281 2.54836 13.0415 2.60526 13.1533 2.66504C13.2652 2.72483 13.3756 2.78733 13.4844 2.85254C13.5931 2.9177 13.7003 2.98526 13.8057 3.05566C13.9111 3.12609 14.0144 3.19988 14.1162 3.27539C14.2181 3.35095 14.3189 3.42833 14.417 3.50879C14.5149 3.58918 14.6102 3.67271 14.7041 3.75781C14.7981 3.84299 14.8908 3.92985 14.9805 4.01953C15.0702 4.10922 15.157 4.20192 15.2422 4.2959C15.3273 4.3898 15.4108 4.48505 15.4912 4.58301C15.5717 4.68105 15.6491 4.78191 15.7246 4.88379C15.8001 4.98561 15.8739 5.08894 15.9443 5.19434C16.0147 5.29972 16.0823 5.40692 16.1475 5.51562C16.2127 5.62441 16.2752 5.73482 16.335 5.84668C16.3947 5.95853 16.4516 6.07188 16.5059 6.18652C16.5601 6.30117 16.6116 6.41701 16.6602 6.53418C16.7086 6.65122 16.7542 6.7694 16.7969 6.88867C16.8396 7.00798 16.8792 7.12874 16.916 7.25C16.9528 7.37137 16.9868 7.49415 17.0176 7.61719C17.0484 7.74015 17.0768 7.86396 17.1016 7.98828C17.1263 8.11257 17.1474 8.23793 17.166 8.36328C17.1846 8.48857 17.2005 8.61419 17.2129 8.74023C17.2253 8.86646 17.234 8.99344 17.2402 9.12012C17.2464 9.24668 17.25 9.37329 17.25 9.5C17.25 9.62671 17.2464 9.75332 17.2402 9.87988C17.234 10.0066 17.2253 10.1335 17.2129 10.2598C17.2005 10.3858 17.1846 10.5114 17.166 10.6367C17.1474 10.7621 17.1263 10.8874 17.1016 11.0117C17.0768 11.136 17.0484 11.2599 17.0176 11.3828C16.9868 11.5058 16.9528 11.6286 16.916 11.75C16.8792 11.8713 16.8396 11.992 16.7969 12.1113C16.7542 12.2306 16.7086 12.3488 16.6602 12.4658C16.6116 12.583 16.5601 12.6988 16.5059 12.8135C16.4516 12.9281 16.3947 13.0415 16.335 13.1533C16.2752 13.2652 16.2127 13.3756 16.1475 13.4844C16.0823 13.5931 16.0147 13.7003 15.9443 13.8057C15.8951 13.8794 15.8418 13.9505 15.79 14.0225L18.4189 16.6514L16.6514 18.4189L14.0225 15.79C13.9505 15.8418 13.8794 15.8951 13.8057 15.9443C13.7003 16.0147 13.5931 16.0823 13.4844 16.1475C13.3756 16.2127 13.2652 16.2752 13.1533 16.335C13.0415 16.3947 12.9281 16.4516 12.8135 16.5059C12.6988 16.5601 12.583 16.6116 12.4658 16.6602C12.3488 16.7086 12.2306 16.7542 12.1113 16.7969C11.992 16.8396 11.8713 16.8792 11.75 16.916C11.6286 16.9528 11.5058 16.9868 11.3828 17.0176C11.2599 17.0484 11.136 17.0768 11.0117 17.1016C10.8874 17.1263 10.7621 17.1474 10.6367 17.166C10.5114 17.1846 10.3858 17.2005 10.2598 17.2129C10.1335 17.2253 10.0066 17.234 9.87988 17.2402C9.75332 17.2464 9.62671 17.25 9.5 17.25C9.37329 17.25 9.24668 17.2464 9.12012 17.2402C8.99344 17.234 8.86646 17.2253 8.74023 17.2129C8.61419 17.2005 8.48857 17.1846 8.36328 17.166C8.23793 17.1474 8.11257 17.1263 7.98828 17.1016C7.86396 17.0768 7.74015 17.0484 7.61719 17.0176C7.49415 16.9868 7.37137 16.9528 7.25 16.916C7.12874 16.8792 7.00798 16.8396 6.88867 16.7969C6.7694 16.7542 6.65122 16.7086 6.53418 16.6602C6.41701 16.6116 6.30117 16.5601 6.18652 16.5059C6.07188 16.4516 5.95853 16.3947 5.84668 16.335C5.73482 16.2752 5.62441 16.2127 5.51562 16.1475C5.40692 16.0823 5.29972 16.0147 5.19434 15.9443C5.08894 15.8739 4.98561 15.8001 4.88379 15.7246C4.78191 15.6491 4.68105 15.5717 4.58301 15.4912C4.48505 15.4108 4.3898 15.3273 4.2959 15.2422C4.20192 15.157 4.10922 15.0702 4.01953 14.9805C3.92985 14.8908 3.84299 14.7981 3.75781 14.7041C3.67271 14.6102 3.58918 14.5149 3.50879 14.417C3.42833 14.3189 3.35095 14.2181 3.27539 14.1162C3.19988 14.0144 3.12609 13.9111 3.05566 13.8057C2.98526 13.7003 2.9177 13.5931 2.85254 13.4844C2.78733 13.3756 2.72483 13.2652 2.66504 13.1533C2.60526 13.0415 2.54836 12.9281 2.49414 12.8135C2.43992 12.6988 2.38838 12.583 2.33984 12.4658C2.29136 12.3488 2.24581 12.2306 2.20312 12.1113C2.16044 11.992 2.12077 11.8713 2.08398 11.75C2.04717 11.6286 2.01324 11.5058 1.98242 11.3828C1.95163 11.2599 1.92317 11.136 1.89844 11.0117C1.87372 10.8874 1.85258 10.7621 1.83398 10.6367C1.81541 10.5114 1.79953 10.3858 1.78711 10.2598C1.77468 10.1335 1.76599 10.0066 1.75977 9.87988C1.75355 9.75332 1.75 9.62671 1.75 9.5C1.75 9.37329 1.75355 9.24668 1.75977 9.12012C1.76599 8.99344 1.77468 8.86646 1.78711 8.74023C1.79953 8.61419 1.81541 8.48857 1.83398 8.36328C1.85258 8.23792 1.87372 8.11257 1.89844 7.98828C1.92317 7.86396 1.95163 7.74015 1.98242 7.61719C2.01324 7.49415 2.04717 7.37137 2.08398 7.25C2.12077 7.12874 2.16044 7.00798 2.20312 6.88867C2.24581 6.76939 2.29136 6.65122 2.33984 6.53418C2.38838 6.41701 2.43992 6.30117 2.49414 6.18652C2.54836 6.07188 2.60526 5.95853 2.66504 5.84668C2.72483 5.73482 2.78733 5.62441 2.85254 5.51562C2.9177 5.40692 2.98526 5.29972 3.05566 5.19434C3.12609 5.08894 3.19988 4.98561 3.27539 4.88379C3.35095 4.78191 3.42833 4.68105 3.50879 4.58301C3.58918 4.48505 3.67271 4.3898 3.75781 4.2959C3.84299 4.20192 3.92985 4.10922 4.01953 4.01953C4.10922 3.92985 4.20192 3.84299 4.2959 3.75781C4.3898 3.67271 4.48505 3.58918 4.58301 3.50879C4.68105 3.42833 4.78191 3.35095 4.88379 3.27539C4.98561 3.19988 5.08894 3.12609 5.19434 3.05566C5.29972 2.98526 5.40692 2.9177 5.51562 2.85254C5.62441 2.78733 5.73482 2.72483 5.84668 2.66504C5.95853 2.60526 6.07188 2.54836 6.18652 2.49414C6.30117 2.43992 6.41701 2.38838 6.53418 2.33984C6.65122 2.29136 6.76939 2.24581 6.88867 2.20312C7.00798 2.16044 7.12874 2.12077 7.25 2.08398C7.37137 2.04717 7.49415 2.01324 7.61719 1.98242C7.74015 1.95163 7.86396 1.92317 7.98828 1.89844C8.11257 1.87372 8.23792 1.85258 8.36328 1.83398C8.48857 1.81541 8.61419 1.79953 8.74023 1.78711C8.86646 1.77468 8.99344 1.76599 9.12012 1.75977C9.24668 1.75355 9.37329 1.75 9.5 1.75C9.62671 1.75 9.75332 1.75355 9.87988 1.75977ZM9.24219 4.25586C9.15643 4.26008 9.0708 4.26697 8.98535 4.27539C8.89987 4.28381 8.81446 4.29404 8.72949 4.30664C8.64455 4.31924 8.55981 4.33383 8.47559 4.35059C8.39145 4.36732 8.30783 4.38639 8.22461 4.40723C8.14126 4.4281 8.05781 4.45064 7.97559 4.47559C7.89351 4.50049 7.8122 4.52775 7.73145 4.55664C7.65066 4.58555 7.57048 4.61659 7.49121 4.64941C7.41183 4.68229 7.33255 4.71717 7.25488 4.75391C7.17735 4.79058 7.10103 4.82969 7.02539 4.87012C6.94962 4.91062 6.87448 4.9529 6.80078 4.99707C6.72715 5.04121 6.65438 5.08707 6.58301 5.13477C6.51172 5.1824 6.44192 5.23213 6.37305 5.2832C6.30419 5.33427 6.2362 5.38702 6.16992 5.44141C6.1035 5.49591 6.03827 5.55265 5.97461 5.61035C5.91095 5.66805 5.84884 5.72733 5.78809 5.78809C5.72733 5.84884 5.66805 5.91095 5.61035 5.97461C5.55265 6.03827 5.49591 6.1035 5.44141 6.16992C5.38702 6.2362 5.33427 6.30419 5.2832 6.37305C5.23213 6.44192 5.1824 6.51172 5.13477 6.58301C5.08707 6.65438 5.04121 6.72715 4.99707 6.80078C4.9529 6.87448 4.91062 6.94962 4.87012 7.02539C4.82969 7.10103 4.79058 7.17735 4.75391 7.25488C4.71717 7.33255 4.68229 7.41183 4.64941 7.49121C4.61659 7.57048 4.58555 7.65066 4.55664 7.73145C4.52775 7.8122 4.50049 7.89351 4.47559 7.97559C4.45064 8.05781 4.4281 8.14126 4.40723 8.22461C4.38639 8.30783 4.36732 8.39145 4.35059 8.47559C4.33383 8.55981 4.31924 8.64455 4.30664 8.72949C4.29404 8.81446 4.28381 8.89987 4.27539 8.98535C4.26697 9.0708 4.26008 9.15643 4.25586 9.24219C4.25164 9.328 4.25 9.41408 4.25 9.5C4.25 9.58592 4.25164 9.672 4.25586 9.75781C4.26008 9.84357 4.26697 9.9292 4.27539 10.0146C4.28381 10.1001 4.29404 10.1855 4.30664 10.2705C4.31924 10.3555 4.33383 10.4402 4.35059 10.5244C4.36732 10.6086 4.38639 10.6922 4.40723 10.7754C4.4281 10.8587 4.45064 10.9422 4.47559 11.0244C4.50049 11.1065 4.52775 11.1878 4.55664 11.2686C4.58555 11.3493 4.61659 11.4295 4.64941 11.5088C4.68229 11.5882 4.71717 11.6674 4.75391 11.7451C4.79058 11.8227 4.82969 11.899 4.87012 11.9746C4.91062 12.0504 4.9529 12.1255 4.99707 12.1992C5.04121 12.2728 5.08707 12.3456 5.13477 12.417C5.1824 12.4883 5.23213 12.5581 5.2832 12.627C5.33427 12.6958 5.38702 12.7638 5.44141 12.8301C5.49591 12.8965 5.55265 12.9617 5.61035 13.0254C5.66805 13.089 5.72733 13.1512 5.78809 13.2119C5.84884 13.2727 5.91095 13.332 5.97461 13.3896C6.03827 13.4473 6.1035 13.5041 6.16992 13.5586C6.2362 13.613 6.30419 13.6657 6.37305 13.7168C6.44192 13.7679 6.51172 13.8176 6.58301 13.8652C6.65439 13.9129 6.72715 13.9588 6.80078 14.0029C6.87448 14.0471 6.94962 14.0894 7.02539 14.1299C7.10103 14.1703 7.17735 14.2094 7.25488 14.2461C7.33255 14.2828 7.41183 14.3177 7.49121 14.3506C7.57048 14.3834 7.65066 14.4145 7.73145 14.4434C7.8122 14.4722 7.89351 14.4995 7.97559 14.5244C8.05781 14.5494 8.14126 14.5719 8.22461 14.5928C8.30783 14.6136 8.39145 14.6327 8.47559 14.6494C8.55981 14.6662 8.64455 14.6808 8.72949 14.6934C8.81446 14.706 8.89987 14.7162 8.98535 14.7246C9.0708 14.733 9.15643 14.7399 9.24219 14.7441C9.328 14.7484 9.41408 14.75 9.5 14.75C9.58592 14.75 9.672 14.7484 9.75781 14.7441C9.84357 14.7399 9.9292 14.733 10.0146 14.7246C10.1001 14.7162 10.1855 14.706 10.2705 14.6934C10.3555 14.6808 10.4402 14.6662 10.5244 14.6494C10.6086 14.6327 10.6922 14.6136 10.7754 14.5928C10.8587 14.5719 10.9422 14.5494 11.0244 14.5244C11.1065 14.4995 11.1878 14.4723 11.2686 14.4434C11.3493 14.4145 11.4295 14.3834 11.5088 14.3506C11.5882 14.3177 11.6674 14.2828 11.7451 14.2461C11.8227 14.2094 11.899 14.1703 11.9746 14.1299C12.0504 14.0894 12.1255 14.0471 12.1992 14.0029C12.2728 13.9588 12.3456 13.9129 12.417 13.8652C12.4883 13.8176 12.5581 13.7679 12.627 13.7168C12.6958 13.6657 12.7638 13.613 12.8301 13.5586C12.8965 13.5041 12.9617 13.4473 13.0254 13.3896C13.089 13.332 13.1512 13.2727 13.2119 13.2119C13.2727 13.1512 13.332 13.089 13.3896 13.0254C13.4473 12.9617 13.5041 12.8965 13.5586 12.8301C13.613 12.7638 13.6657 12.6958 13.7168 12.627C13.7679 12.5581 13.8176 12.4883 13.8652 12.417C13.9129 12.3456 13.9588 12.2728 14.0029 12.1992C14.0471 12.1255 14.0894 12.0504 14.1299 11.9746C14.1703 11.899 14.2094 11.8227 14.2461 11.7451C14.2828 11.6674 14.3177 11.5882 14.3506 11.5088C14.3834 11.4295 14.4145 11.3493 14.4434 11.2686C14.4722 11.1878 14.4995 11.1065 14.5244 11.0244C14.5494 10.9422 14.5719 10.8587 14.5928 10.7754C14.6136 10.6922 14.6327 10.6086 14.6494 10.5244C14.6662 10.4402 14.6808 10.3554 14.6934 10.2705C14.706 10.1855 14.7162 10.1001 14.7246 10.0146C14.733 9.9292 14.7399 9.84357 14.7441 9.75781C14.7484 9.672 14.75 9.58592 14.75 9.5C14.75 9.41408 14.7484 9.328 14.7441 9.24219C14.7399 9.15643 14.733 9.0708 14.7246 8.98535C14.7162 8.89987 14.706 8.81446 14.6934 8.72949C14.6808 8.64455 14.6662 8.55981 14.6494 8.47559C14.6327 8.39145 14.6136 8.30783 14.5928 8.22461C14.5719 8.14126 14.5494 8.05781 14.5244 7.97559C14.4995 7.89351 14.4723 7.8122 14.4434 7.73145C14.4145 7.65066 14.3834 7.57048 14.3506 7.49121C14.3177 7.41183 14.2828 7.33255 14.2461 7.25488C14.2094 7.17735 14.1703 7.10103 14.1299 7.02539C14.0894 6.94962 14.0471 6.87448 14.0029 6.80078C13.9588 6.72715 13.9129 6.65438 13.8652 6.58301C13.8176 6.51172 13.7679 6.44192 13.7168 6.37305C13.6657 6.30419 13.613 6.2362 13.5586 6.16992C13.5041 6.1035 13.4473 6.03827 13.3896 5.97461C13.332 5.91095 13.2727 5.84884 13.2119 5.78809C13.1512 5.72733 13.089 5.66805 13.0254 5.61035C12.9617 5.55265 12.8965 5.49591 12.8301 5.44141C12.7638 5.38702 12.6958 5.33428 12.627 5.2832C12.5581 5.23213 12.4883 5.1824 12.417 5.13477C12.3456 5.08707 12.2728 5.04121 12.1992 4.99707C12.1255 4.9529 12.0504 4.91062 11.9746 4.87012C11.899 4.82969 11.8227 4.79058 11.7451 4.75391C11.6674 4.71717 11.5882 4.68229 11.5088 4.64941C11.4295 4.61659 11.3493 4.58555 11.2686 4.55664C11.1878 4.52775 11.1065 4.50049 11.0244 4.47559C10.9422 4.45064 10.8587 4.4281 10.7754 4.40723C10.6922 4.38639 10.6086 4.36732 10.5244 4.35059C10.4402 4.33383 10.3555 4.31924 10.2705 4.30664C10.1855 4.29404 10.1001 4.28381 10.0146 4.27539C9.9292 4.26697 9.84357 4.26008 9.75781 4.25586C9.672 4.25164 9.58592 4.25 9.5 4.25C9.41408 4.25 9.328 4.25164 9.24219 4.25586Z" fill="#111111"/>
</g>
</g>
</svg>
