<svg width="20" height="20" viewBox="0 0 20 20" fill="none" xmlns="http://www.w3.org/2000/svg">
<g id="&#229;&#141;&#150;">
<g id="&#229;&#141;&#150;_2">
<path id="&#229;&#141;&#150;_3" d="M11.9886 10.7303C11.9545 11.2742 11.8868 11.7841 11.7679 12.243H17.2083V13.7899H11.1555C11.0706 13.9258 11.0028 14.0453 10.9348 14.1473C13.0768 14.7763 15.0664 15.5244 16.8684 16.3914L15.9671 17.8016C14.0122 16.7307 12.0231 15.8812 10.0003 15.2352L9.94949 15.286C8.70849 16.34 6.68476 17.1728 3.89676 17.7508L3.04715 16.3739C5.86898 15.8129 7.77324 15.1164 8.79324 14.2664C8.96324 14.0964 9.11623 13.9429 9.25223 13.7899H2.92801V12.243H7.04227C5.95427 11.58 4.84884 11.0701 3.72684 10.6961L4.49246 9.57407C5.7673 9.98204 6.94053 10.4924 7.99442 11.1043L7.24637 12.243H10.136C10.306 11.7501 10.4077 11.2402 10.4417 10.7303V7.97641H11.9886V10.7303ZM10.8499 2.077V3.28403H15.678V4.74594H10.8499V6.02133H16.8167V7.02426C16.5617 8.18015 16.2215 9.31936 15.7796 10.4413L14.2669 10.0164C14.6239 9.28545 14.9298 8.45185 15.1848 7.49985H3.11453V6.02133H9.28641V4.74594H4.35574V3.28403H9.28641V2.077H10.8499ZM5.9368 7.80551C7.2118 8.16251 8.38533 8.60526 9.45633 9.14926L8.63992 10.3729C7.51796 9.76093 6.36211 9.28457 5.17215 8.92758L5.9368 7.80551Z" fill="#111111"/>
</g>
</g>
</svg>
