<svg width="20" height="20" viewBox="0 0 20 20" fill="none" xmlns="http://www.w3.org/2000/svg">
<g id="&#232;&#174;&#190;&#231;&#189;&#174;">
<g id="&#232;&#174;&#190;&#231;&#189;&#174;_2">
<path id="Union" d="M18.25 5.42285V14.9961L10.377 19.5684L10 19.7861L9.62305 19.5684L1.75 14.9961V5.42285L10 0.632812L18.25 5.42285ZM3.25 6.28711V14.1318L10 18.0508L16.75 14.1318V6.28711L10 2.36719L3.25 6.28711ZM10 6.9502C11.7949 6.9502 13.25 8.40527 13.25 10.2002C13.2499 11.995 11.7949 13.4502 10 13.4502C8.20514 13.4502 6.75011 11.995 6.75 10.2002C6.75 8.40527 8.20507 6.9502 10 6.9502ZM10 8.4502C9.0335 8.4502 8.25 9.2337 8.25 10.2002C8.25011 11.1666 9.03357 11.9502 10 11.9502C10.9664 11.9502 11.7499 11.1666 11.75 10.2002C11.75 9.2337 10.9665 8.4502 10 8.4502Z" fill="#111111"/>
</g>
</g>
</svg>
