<svg width="120" height="110" viewBox="0 0 120 110" fill="none" xmlns="http://www.w3.org/2000/svg">
<g id="Style=&#230;&#147;&#141;&#228;&#189;&#156;&#229;&#164;&#177;&#232;&#180;&#165;">
<path d="M0 16C0 7.16344 7.16344 0 16 0H104C112.837 0 120 7.16344 120 16V94C120 102.837 112.837 110 104 110H16C7.16344 110 0 102.837 0 94V16Z" fill="#111111" fill-opacity="0.7"/>
<g id="&#229;&#164;&#177;&#232;&#180;&#165;">
<path id="Vector" d="M36 42.0222C36 28.7673 46.7452 18.0222 60 18.0222C73.2548 18.0222 84 28.7673 84 42.0222V42.1995C84 55.4543 73.2548 66.1995 60 66.1995C46.7452 66.1995 36 55.4543 36 42.1995V42.0222Z" stroke="white" stroke-width="1.5"/>
<path id="Vector_2" fill-rule="evenodd" clip-rule="evenodd" d="M67.0973 35.0136C66.5115 34.4278 65.5618 34.4278 64.976 35.0136L60.004 39.9856L55.0597 35.0413L55.0512 35.0328C54.4661 34.4511 53.5211 34.4511 52.936 35.0328L52.9306 35.0382L52.9275 35.0413L52.922 35.0467C52.3404 35.6318 52.3404 36.5768 52.922 37.1619L52.9306 37.1704L57.8749 42.1147L52.9029 47.0867C52.3171 47.6724 52.3171 48.6222 52.9029 49.208C53.4887 49.7938 54.4385 49.7938 55.0243 49.208L59.9962 44.2361L64.9405 49.1803L64.949 49.1889C65.534 49.7706 66.4791 49.7706 67.0642 49.1889L67.0696 49.1834L67.0727 49.1803L67.0782 49.1749C67.66 48.59 67.66 47.6449 67.0782 47.0597L67.0696 47.0512L62.1253 42.1069L67.0973 37.1349C67.6831 36.5491 67.6831 35.5994 67.0973 35.0136Z" fill="white"/>
</g>
<path id="Description" d="M40.773 88.9987H38.433V88.1537H41.839V87.3737H42.736V88.1537H46.142V88.9987H43.75C44.322 89.8567 45.245 90.6107 46.519 91.2867L45.908 92.0407C44.53 91.1307 43.542 90.1167 42.97 88.9987H42.736V92.4827H41.839V88.9987H41.579C40.942 90.2337 39.928 91.2607 38.524 92.0797L38.043 91.2737C39.278 90.6757 40.188 89.9087 40.773 88.9987ZM38.355 85.9827V86.9057C37.939 87.1267 37.523 87.3347 37.107 87.5167V91.3387C37.107 92.0407 36.743 92.4047 36.028 92.4047H34.988L34.793 91.5077C35.105 91.5467 35.417 91.5727 35.703 91.5727C36.015 91.5727 36.171 91.4167 36.171 91.1047V87.9067C35.729 88.0887 35.274 88.2447 34.819 88.3877L34.598 87.4517C35.144 87.3217 35.664 87.1657 36.171 86.9837V83.9937H34.715V83.0967H36.171V80.6527H37.107V83.0967H38.472V83.9937H37.107V86.6067C37.523 86.4117 37.939 86.2037 38.355 85.9827ZM39.798 81.0687H44.777V83.7207H39.798V81.0687ZM43.919 82.9797V81.8097H40.643V82.9797H43.919ZM38.732 84.5007H41.904V87.0747H38.732V84.5007ZM41.137 86.3987V85.1767H39.512V86.3987H41.137ZM42.671 84.5007H45.869V87.0747H42.671V84.5007ZM45.102 86.3987V85.1767H43.438V86.3987H45.102ZM53.292 83.3567C52.694 84.6177 52.005 85.7097 51.225 86.6457L50.562 85.8527C51.706 84.5007 52.655 82.7197 53.383 80.5227L54.319 80.7307C54.111 81.3287 53.903 81.9007 53.695 82.4337H59.311V83.3567H54.943V85.5017H58.739V86.4117H54.943V88.6087H58.817V89.5057H54.943V92.5347H53.994V83.3567H53.292ZM49.132 85.2287C48.716 85.7747 48.261 86.2947 47.767 86.7887L47.455 85.8007C48.859 84.2797 49.886 82.5377 50.523 80.5617L51.407 80.9777C51.056 81.9917 50.614 82.9407 50.094 83.8247V92.5347H49.132V85.2287ZM63.224 80.8737L64.095 81.2117C63.887 81.8097 63.653 82.3687 63.406 82.8887H66.032V80.6137H66.994V82.8887H71.349V83.7987H66.994V84.6437C66.968 85.2677 66.916 85.8527 66.825 86.3987H72.194V87.2957H67.358C67.995 89.1677 69.672 90.6237 72.389 91.6637L71.869 92.4827C69.035 91.2607 67.267 89.6097 66.565 87.5037C66.318 88.3617 65.967 89.1027 65.512 89.7267C64.615 90.9097 63.146 91.8327 61.092 92.4957L60.585 91.7027C62.613 91.0267 64.043 90.1557 64.849 89.0767C65.187 88.5567 65.46 87.9587 65.655 87.2957H60.819V86.3987H65.85C65.954 85.8527 66.006 85.2677 66.032 84.6437V83.7987H62.925C62.457 84.5657 61.95 85.2157 61.391 85.7357L60.598 85.0467C61.768 84.0067 62.639 82.6157 63.224 80.8737ZM81.203 83.5127C81.151 83.6557 81.112 83.7987 81.06 83.9287C81.255 85.6707 81.723 87.1787 82.451 88.4527C83.127 87.0747 83.504 85.4237 83.556 83.5127H81.203ZM80.475 85.3197C80.215 85.8137 79.942 86.2297 79.63 86.5807L79.084 85.8787C80.033 84.6177 80.644 82.8367 80.904 80.5487L81.827 80.6657C81.723 81.3677 81.593 82.0177 81.45 82.6157H85.259V83.5127H84.427C84.362 85.8007 83.894 87.7247 83.01 89.3107C83.686 90.2207 84.505 91.0007 85.493 91.6507L84.986 92.5347C83.998 91.8717 83.166 91.0787 82.49 90.1557C81.84 91.0917 81.021 91.8717 80.046 92.5217L79.539 91.7027C80.527 91.0787 81.333 90.2857 81.957 89.3497C81.255 88.1797 80.761 86.8407 80.475 85.3197ZM78.863 81.1207V89.2587H78.005V81.9917H74.924V89.2587H74.066V81.1207H78.863ZM77.368 89.6357C78.109 90.3637 78.733 91.0787 79.24 91.7937L78.551 92.4697C78.122 91.7677 77.524 91.0267 76.757 90.2337L77.368 89.6357ZM76.068 82.9667H76.887V86.9317C76.861 88.4397 76.64 89.6357 76.211 90.5327C75.769 91.3777 75.067 92.0277 74.105 92.4957L73.598 91.6897C74.508 91.2477 75.158 90.6497 75.522 89.9217C75.86 89.1547 76.042 88.1537 76.068 86.9317V82.9667Z" fill="white"/>
</g>
</svg>
