<svg width="120" height="110" viewBox="0 0 120 110" fill="none" xmlns="http://www.w3.org/2000/svg">
<g id="Style=&#229;&#138;&#160;&#232;&#189;&#189;&#228;&#184;&#173;">
<path d="M0 16C0 7.16344 7.16344 0 16 0H104C112.837 0 120 7.16344 120 16V94C120 102.837 112.837 110 104 110H16C7.16344 110 0 102.837 0 94V16Z" fill="#111111" fill-opacity="0.7"/>
<g id="&#229;&#138;&#160;&#232;&#189;&#189; 1">
<path id="Vector" opacity="0.76" d="M58.5 19.5222C58.5 18.6937 59.1716 18.0222 60 18.0222C60.8284 18.0222 61.5 18.6937 61.5 19.5222V26.5591C61.5 27.3875 60.8284 28.0591 60 28.0591C59.1716 28.0591 58.5 27.3875 58.5 26.5591V19.5222Z" fill="white"/>
<path id="Vector_2" opacity="0.84" d="M69.951 21.75C70.3652 21.0326 71.2826 20.7868 72 21.201L72.0163 21.2104C72.7337 21.6246 72.9795 22.542 72.5653 23.2594L69.0491 29.3497C68.6349 30.0672 67.7175 30.313 67 29.8988L66.9838 29.8894C66.2663 29.4752 66.0205 28.5578 66.4347 27.8404L69.951 21.75Z" fill="white"/>
<path id="Vector_3" opacity="0.68" d="M47.4347 23.2594C47.0205 22.542 47.2663 21.6246 47.9837 21.2104L48 21.201C48.7174 20.7868 49.6348 21.0326 50.049 21.75L53.5653 27.8404C53.9795 28.5578 53.7337 29.4752 53.0162 29.8894L53 29.8988C52.2825 30.313 51.3652 30.0672 50.9509 29.3498L47.4347 23.2594Z" fill="white"/>
<path id="Vector_4" opacity="0.6" d="M39.7068 32.1318C38.9893 31.7176 38.7435 30.8002 39.1577 30.0827L39.1699 30.0617C39.5841 29.3442 40.5015 29.0984 41.2189 29.5126L47.2932 33.0197C48.0107 33.4339 48.2565 34.3513 47.8423 35.0687L47.8301 35.0898C47.4159 35.8072 46.4985 36.053 45.7811 35.6388L39.7068 32.1318Z" fill="white"/>
<path id="Vector_5" opacity="0.44" d="M41.2189 54.709C40.5015 55.1232 39.5841 54.8774 39.1699 54.1599L39.1577 54.1389C38.7435 53.4215 38.9893 52.5041 39.7067 52.0899L45.7811 48.5828C46.4985 48.1686 47.4159 48.4144 47.8301 49.1319L47.8423 49.1529C48.2565 49.8704 48.0107 50.7878 47.2932 51.202L41.2189 54.709Z" fill="white"/>
<path id="Vector_6" opacity="0.36" d="M50.049 62.4717C49.6348 63.1891 48.7174 63.4349 48 63.0207L47.9837 63.0113C47.2663 62.5971 47.0205 61.6797 47.4347 60.9623L50.9509 54.8719C51.3651 54.1545 52.2825 53.9087 53 54.3229L53.0162 54.3323C53.7337 54.7465 53.9795 55.6639 53.5653 56.3813L50.049 62.4717Z" fill="white"/>
<path id="Vector_7" opacity="0.1" d="M80.2932 52.0899C81.0107 52.5041 81.2565 53.4215 80.8423 54.1389L80.8301 54.16C80.4159 54.8774 79.4985 55.1232 78.7811 54.709L72.7068 51.202C71.9893 50.7878 71.7435 49.8704 72.1577 49.153L72.1699 49.1319C72.5841 48.4145 73.5015 48.1687 74.2189 48.5829L80.2932 52.0899Z" fill="white"/>
<path id="Vector_8" opacity="0.2" d="M72.5653 60.9623C72.9795 61.6797 72.7337 62.5971 72.0163 63.0113L72 63.0207C71.2826 63.4349 70.3652 63.1891 69.951 62.4716L66.4347 56.3813C66.0205 55.6639 66.2663 54.7465 66.9838 54.3323L67 54.3229C67.7175 53.9087 68.6348 54.1545 69.0491 54.8719L72.5653 60.9623Z" fill="white"/>
<path id="Vector_9" opacity="0.92" d="M78.7811 29.5127C79.4985 29.0985 80.4159 29.3443 80.8301 30.0617L80.8423 30.0828C81.2565 30.8002 81.0107 31.7176 80.2933 32.1318L74.2189 35.6388C73.5015 36.0531 72.5841 35.8072 72.1699 35.0898L72.1577 35.0688C71.7435 34.3513 71.9893 33.4339 72.7068 33.0197L78.7811 29.5127Z" fill="white"/>
<path id="Vector_10" d="M74 42.1053C74 41.2769 74.6716 40.6053 75.5 40.6053H82.5C83.3284 40.6053 84 41.2769 84 42.1053V42.1164C84 42.9448 83.3284 43.6164 82.5 43.6164H75.5C74.6716 43.6164 74 42.9448 74 42.1164V42.1053Z" fill="white"/>
<path id="Vector_11" opacity="0.52" d="M36 42.1053C36 41.2769 36.6716 40.6053 37.5 40.6053H44.5C45.3284 40.6053 46 41.2769 46 42.1053V42.1164C46 42.9448 45.3284 43.6164 44.5 43.6164H37.5C36.6716 43.6164 36 42.9448 36 42.1164V42.1053Z" fill="white"/>
<path id="Vector_12" opacity="0.28" d="M58.5 57.6625C58.5 56.8341 59.1716 56.1625 60 56.1625C60.8284 56.1625 61.5 56.8341 61.5 57.6625V64.6995C61.5 65.5279 60.8284 66.1995 60 66.1995C59.1716 66.1995 58.5 65.5279 58.5 64.6995V57.6625Z" fill="white"/>
</g>
<path id="Description" d="M52.343 82.5377V92.3267H51.433V91.4557H48.989V92.3267H48.092V82.5377H52.343ZM48.989 90.5587H51.433V83.4347H48.989V90.5587ZM43.308 80.6397H44.244V83.2657H46.896C46.896 87.3217 46.831 89.8307 46.701 90.7927C46.571 91.8587 45.934 92.4047 44.79 92.4047C44.595 92.4047 44.27 92.3787 43.802 92.3527L43.568 91.4947C43.984 91.5207 44.348 91.5467 44.66 91.5467C45.323 91.5467 45.713 91.1697 45.817 90.4287C45.895 89.7527 45.947 87.6597 45.973 84.1757H44.244C44.192 88.0107 43.334 90.8057 41.67 92.5737L40.981 91.9627C42.489 90.3377 43.269 87.7377 43.308 84.1757H41.228V83.2657H43.308V80.6397ZM54.956 81.6537H57.491V80.5617H58.401V81.6537H60.754V82.5117H58.401V83.7077H61.521C61.469 82.7327 61.443 81.6797 61.443 80.5357H62.353C62.353 81.7187 62.379 82.7717 62.431 83.7077H65.707V84.5527H62.483C62.561 85.7097 62.665 86.6587 62.808 87.3867C62.886 87.7637 62.964 88.1147 63.042 88.4527C63.51 87.5167 63.887 86.4247 64.173 85.2027L65.005 85.5797C64.589 87.2047 64.056 88.5697 63.406 89.6617C63.51 89.9607 63.627 90.2207 63.744 90.4547C64.082 91.0917 64.355 91.4167 64.563 91.4167C64.771 91.4037 64.953 90.7147 65.109 89.3367L65.915 89.7657C65.629 91.4947 65.226 92.3657 64.68 92.3657C64.238 92.3657 63.757 91.9627 63.25 91.1827C63.107 90.9617 62.977 90.7277 62.873 90.4807C62.197 91.3647 61.43 92.0277 60.572 92.4957L60.065 91.7417C61.001 91.2217 61.807 90.4677 62.47 89.4667C62.288 88.8947 62.119 88.2707 61.976 87.5817C61.794 86.7237 61.651 85.7227 61.573 84.5527H54.28V83.7077H57.491V82.5117H54.956V81.6537ZM63.692 80.7047C64.342 81.4327 64.849 82.0697 65.2 82.6157L64.498 83.1097C64.134 82.5247 63.627 81.8747 62.977 81.1597L63.692 80.7047ZM60.754 89.8697V90.7017C60.104 90.7797 59.428 90.8707 58.726 90.9487V92.4827H57.803V91.0397C56.867 91.1307 55.879 91.2087 54.839 91.2867L54.722 90.4157C55.814 90.3507 56.841 90.2727 57.803 90.1947V89.0377H55.268L55.086 88.2707C55.45 87.8287 55.788 87.2957 56.1 86.6457H54.67V85.8137H56.464C56.594 85.5017 56.711 85.1637 56.828 84.8257L57.725 84.9947C57.621 85.2807 57.517 85.5537 57.413 85.8137H60.819V86.6457H57.049C56.763 87.2437 56.451 87.7767 56.126 88.2447H57.803V87.2307H58.726V88.2447H60.702V89.0377H58.726V90.1037C59.441 90.0257 60.117 89.9477 60.754 89.8697ZM72.519 80.5487H73.481V82.8887H78.148V88.9987H77.212V88.1797H73.481V92.6127H72.519V88.1797H68.801V88.9987H67.865V82.8887H72.519V80.5487ZM68.801 87.2697H72.519V83.7987H68.801V87.2697ZM73.481 87.2697H77.212V83.7987H73.481V87.2697Z" fill="white"/>
</g>
</svg>
