<svg width="120" height="110" viewBox="0 0 120 110" fill="none" xmlns="http://www.w3.org/2000/svg">
<g id="Style=&#230;&#147;&#141;&#228;&#189;&#156;&#230;&#136;&#144;&#229;&#138;&#159;">
<path d="M0 16C0 7.16344 7.16344 0 16 0H104C112.837 0 120 7.16344 120 16V94C120 102.837 112.837 110 104 110H16C7.16344 110 0 102.837 0 94V16Z" fill="#111111" fill-opacity="0.7"/>
<g id="&#229;&#175;&#185;&#229;&#143;&#183;">
<path id="Vector" d="M36 42.0222C36 28.7673 46.7452 18.0222 60 18.0222C73.2548 18.0222 84 28.7673 84 42.0222V42.1995C84 55.4543 73.2548 66.1995 60 66.1995C46.7452 66.1995 36 55.4543 36 42.1995V42.0222Z" stroke="white" stroke-width="1.5"/>
<path id="Vector_2" fill-rule="evenodd" clip-rule="evenodd" d="M51.2311 40.8517C50.6453 41.4375 50.6453 42.3872 51.2311 42.973L57.6264 49.3683L57.6295 49.3714C58.2155 49.9541 59.163 49.9531 59.7477 49.3683L59.7562 49.3597L71.7631 37.3529L71.7716 37.3444C72.3533 36.7594 72.3533 35.8143 71.7716 35.2292L71.7661 35.2238L71.7631 35.2207L71.7576 35.2152C71.1727 34.6334 70.2276 34.6334 69.6424 35.2152L69.6339 35.2238L58.6792 46.1785L53.3524 40.8517C52.7666 40.2659 51.8169 40.2659 51.2311 40.8517Z" fill="white"/>
</g>
<path id="Description" d="M40.773 88.9987H38.433V88.1537H41.839V87.3737H42.736V88.1537H46.142V88.9987H43.75C44.322 89.8567 45.245 90.6107 46.519 91.2867L45.908 92.0407C44.53 91.1307 43.542 90.1167 42.97 88.9987H42.736V92.4827H41.839V88.9987H41.579C40.942 90.2337 39.928 91.2607 38.524 92.0797L38.043 91.2737C39.278 90.6757 40.188 89.9087 40.773 88.9987ZM38.355 85.9827V86.9057C37.939 87.1267 37.523 87.3347 37.107 87.5167V91.3387C37.107 92.0407 36.743 92.4047 36.028 92.4047H34.988L34.793 91.5077C35.105 91.5467 35.417 91.5727 35.703 91.5727C36.015 91.5727 36.171 91.4167 36.171 91.1047V87.9067C35.729 88.0887 35.274 88.2447 34.819 88.3877L34.598 87.4517C35.144 87.3217 35.664 87.1657 36.171 86.9837V83.9937H34.715V83.0967H36.171V80.6527H37.107V83.0967H38.472V83.9937H37.107V86.6067C37.523 86.4117 37.939 86.2037 38.355 85.9827ZM39.798 81.0687H44.777V83.7207H39.798V81.0687ZM43.919 82.9797V81.8097H40.643V82.9797H43.919ZM38.732 84.5007H41.904V87.0747H38.732V84.5007ZM41.137 86.3987V85.1767H39.512V86.3987H41.137ZM42.671 84.5007H45.869V87.0747H42.671V84.5007ZM45.102 86.3987V85.1767H43.438V86.3987H45.102ZM53.292 83.3567C52.694 84.6177 52.005 85.7097 51.225 86.6457L50.562 85.8527C51.706 84.5007 52.655 82.7197 53.383 80.5227L54.319 80.7307C54.111 81.3287 53.903 81.9007 53.695 82.4337H59.311V83.3567H54.943V85.5017H58.739V86.4117H54.943V88.6087H58.817V89.5057H54.943V92.5347H53.994V83.3567H53.292ZM49.132 85.2287C48.716 85.7747 48.261 86.2947 47.767 86.7887L47.455 85.8007C48.859 84.2797 49.886 82.5377 50.523 80.5617L51.407 80.9777C51.056 81.9917 50.614 82.9407 50.094 83.8247V92.5347H49.132V85.2287ZM69.672 80.5617C70.296 81.0297 70.829 81.5107 71.271 81.9917L70.673 82.5897H72.259V83.4867H68.255C68.346 85.0987 68.515 86.3727 68.749 87.3087C68.827 87.6337 68.918 87.9327 69.009 88.2187C69.659 87.1787 70.179 85.9567 70.582 84.5657L71.427 84.9297C70.907 86.6457 70.231 88.1017 69.399 89.2717C69.581 89.6877 69.776 90.0517 69.984 90.3507C70.413 90.9747 70.764 91.2867 71.024 91.2867C71.258 91.2737 71.479 90.5977 71.674 89.2587L72.519 89.7267C72.207 91.4557 71.765 92.3267 71.18 92.3267C70.634 92.3267 70.049 91.9367 69.425 91.1567C69.191 90.8447 68.97 90.4807 68.775 90.0777C67.865 91.1437 66.799 91.9367 65.577 92.4827L65.057 91.7027C66.357 91.1177 67.462 90.2597 68.359 89.1287C68.177 88.6477 68.008 88.1277 67.865 87.5687C67.579 86.4767 67.397 85.1117 67.293 83.4867H62.834V85.6447H66.019C65.993 87.8417 65.889 89.2587 65.72 89.8957C65.551 90.4547 65.148 90.7407 64.498 90.7667C64.186 90.7667 63.809 90.7407 63.393 90.7147L63.107 89.8697C63.614 89.8957 64.043 89.9087 64.394 89.9087C64.68 89.8957 64.862 89.7007 64.94 89.3367C65.018 88.8947 65.057 87.9587 65.083 86.5287H62.834V86.9187C62.782 89.2457 62.262 91.1177 61.3 92.5217L60.585 91.8847C61.417 90.6887 61.846 89.0377 61.885 86.9187V82.5897H67.254C67.228 81.9397 67.215 81.2767 67.215 80.5747H68.177C68.177 81.3027 68.19 81.9657 68.216 82.5897H70.647C70.257 82.1217 69.737 81.6407 69.074 81.1337L69.672 80.5617ZM75.548 82.9537H73.676V82.0567H78.369V82.9537H76.497V88.9207C77.186 88.7257 77.862 88.5047 78.525 88.2447V89.1807C77.043 89.7267 75.457 90.1687 73.767 90.5327L73.533 89.5967C74.209 89.4797 74.885 89.3367 75.548 89.1807V82.9537ZM80.761 80.6397H81.723V83.2657H85.025C85.025 87.3217 84.96 89.8307 84.83 90.7927C84.674 91.8587 83.933 92.4047 82.62 92.4047C82.386 92.4047 81.996 92.3787 81.437 92.3527L81.216 91.4817C81.697 91.5077 82.113 91.5207 82.477 91.5207C83.322 91.5207 83.816 91.1437 83.946 90.4027C84.024 89.7267 84.076 87.6467 84.102 84.1757H81.723C81.658 87.9977 80.618 90.7927 78.616 92.5737L77.849 91.9107C79.747 90.2987 80.709 87.7117 80.761 84.1757H78.694V83.2657H80.761V80.6397Z" fill="white"/>
</g>
</svg>
