<svg preserveAspectRatio="none" width="100%" height="100%" overflow="visible" style="display: block;" viewBox="0 0 68 14" fill="none" xmlns="http://www.w3.org/2000/svg">
<g id="Container">
<path id="Signal" d="M2 8.3002C2.27879 8.3002 2.41826 8.2996 2.53418 8.32266C3.01021 8.41734 3.38187 8.78999 3.47656 9.26602C3.49961 9.38193 3.5 9.52144 3.5 9.8002V10.8002C3.5 11.0789 3.49961 11.2185 3.47656 11.3344C3.38178 11.8102 3.01005 12.1821 2.53418 12.2768C2.41826 12.2998 2.27879 12.3002 2 12.3002C1.72121 12.3002 1.58174 12.2998 1.46582 12.2768C0.98995 12.1821 0.618223 11.8102 0.523438 11.3344C0.500385 11.2185 0.5 11.0789 0.5 10.8002V9.8002C0.5 9.52144 0.500388 9.38193 0.523438 9.26602C0.618125 8.78999 0.989792 8.41734 1.46582 8.32266C1.58174 8.2996 1.72121 8.3002 2 8.3002ZM6.7998 6.3002C7.07845 6.3002 7.2181 6.29964 7.33398 6.32266C7.81001 6.41734 8.18266 6.78999 8.27734 7.26602C8.30036 7.3819 8.2998 7.52156 8.2998 7.8002V10.8002C8.2998 11.0789 8.3004 11.2185 8.27734 11.3344C8.1826 11.8103 7.80996 12.1821 7.33398 12.2768C7.21808 12.2998 7.07854 12.3002 6.7998 12.3002C6.52113 12.3002 6.38152 12.2998 6.26562 12.2768C5.78983 12.182 5.418 11.8102 5.32324 11.3344C5.30019 11.2185 5.2998 11.0789 5.2998 10.8002V7.8002C5.2998 7.52146 5.3002 7.38192 5.32324 7.26602C5.41792 6.79004 5.78968 6.4174 6.26562 6.32266C6.38152 6.2996 6.52113 6.3002 6.7998 6.3002ZM11.4004 4.00039C11.6789 4.00039 11.8187 3.99981 11.9346 4.02285C12.4104 4.11767 12.7823 4.49032 12.877 4.96621C12.8999 5.08207 12.9004 5.22185 12.9004 5.50039V10.8002C12.9004 11.0789 12.9 11.2185 12.877 11.3344C12.7822 11.8101 12.4103 12.1819 11.9346 12.2768C11.8187 12.2998 11.6789 12.3002 11.4004 12.3002C11.1218 12.3002 10.9821 12.2998 10.8662 12.2768C10.3903 12.1821 10.0176 11.8103 9.92285 11.3344C9.8998 11.2185 9.90039 11.0789 9.90039 10.8002V5.50039C9.90039 5.22187 9.89986 5.08206 9.92285 4.96621C10.0175 4.49018 10.3902 4.11754 10.8662 4.02285C10.9821 3.99986 11.1219 4.00039 11.4004 4.00039ZM16.0996 1.6C16.3782 1.6 16.5179 1.60043 16.6338 1.62344C17.1098 1.71812 17.4825 2.08981 17.5771 2.56582C17.6002 2.68174 17.5996 2.82121 17.5996 3.1V10.8002C17.5996 11.0789 17.6002 11.2185 17.5771 11.3344C17.4824 11.8103 17.1097 12.1821 16.6338 12.2768C16.5179 12.2998 16.3782 12.3002 16.0996 12.3002C15.8211 12.3002 15.6813 12.2998 15.5654 12.2768C15.0897 12.1819 14.7178 11.8101 14.623 11.3344C14.6 11.2185 14.5996 11.0789 14.5996 10.8002V3.1C14.5996 2.82121 14.6 2.68174 14.623 2.56582C14.7177 2.08999 15.0897 1.71829 15.5654 1.62344C15.6813 1.60039 15.8211 1.6 16.0996 1.6Z" fill="var(--fill-0, #111111)"/>
<g id="Frame" clip-path="url(#clip0_0_4)">
<path id="Vector" d="M23.9277 5.78516C24.0576 5.92188 24.2559 5.91504 24.3857 5.77832C26.0674 3.99414 28.2822 3.05078 30.7637 3.05078C33.2588 3.05078 35.4873 4.00098 37.1553 5.78516C37.2784 5.9082 37.4698 5.9082 37.5996 5.77148L38.543 4.82812C38.6592 4.70508 38.6592 4.55469 38.5635 4.43848C36.9571 2.45605 33.9356 1 30.7637 1C27.5986 1 24.5635 2.45605 22.9639 4.43848C22.8682 4.55469 22.8682 4.70508 22.9844 4.82812L23.9277 5.78516ZM26.7646 8.64258C26.915 8.78613 27.0996 8.76562 27.2363 8.61523C28.0566 7.70605 29.3965 7.04297 30.7637 7.0498C32.1445 7.04297 33.4844 7.72656 34.3184 8.63574C34.4414 8.7793 34.6192 8.7793 34.7627 8.63574L35.8223 7.58301C35.9317 7.47363 35.9453 7.32324 35.8428 7.2002C34.8106 5.93555 32.8965 4.98535 30.7637 4.98535C28.6309 4.98535 26.7168 5.93555 25.6846 7.2002C25.582 7.32324 25.5957 7.45996 25.7051 7.58301L26.7646 8.64258ZM30.7637 12.3613C30.9141 12.3613 31.0439 12.293 31.3105 12.0332L32.9786 10.4336C33.0811 10.331 33.1084 10.1807 33.0127 10.0576C32.5684 9.4834 31.7275 8.98438 30.7637 8.98438C29.7725 8.98438 28.9316 9.50391 28.4873 10.0986C28.4189 10.208 28.4463 10.331 28.5557 10.4336L30.2168 12.0332C30.4834 12.2861 30.6133 12.3613 30.7637 12.3613Z" fill="var(--fill-0, #111111)"/>
</g>
<g id="Frame_2" clip-path="url(#clip1_0_4)">
<path id="Vector_2" d="M47.292 12.231H60.3409C61.7603 12.231 62.9556 12.0981 63.8023 11.2515C64.649 10.4048 64.7735 9.22607 64.7735 7.80664V5.42432C64.7735 4.00488 64.649 2.82617 63.8023 1.97949C62.9556 1.13281 61.7603 1 60.3409 1H47.2754C45.8809 1 44.6855 1.13281 43.8389 1.97949C42.9922 2.82617 42.8677 4.01318 42.8677 5.39941V7.80664C42.8677 9.22607 42.9922 10.4048 43.8389 11.2515C44.6855 12.0981 45.8809 12.231 47.292 12.231ZM47.0679 10.8945C46.2129 10.8945 45.3164 10.7783 44.8101 10.2803C44.312 9.77393 44.2041 8.88574 44.2041 8.03076V5.2168C44.2041 4.34521 44.312 3.45703 44.8101 2.95068C45.3164 2.44434 46.2212 2.33643 47.0928 2.33643H60.5733C61.4283 2.33643 62.3247 2.45264 62.8228 2.95068C63.3291 3.45703 63.437 4.33691 63.437 5.19189V8.03076C63.437 8.88574 63.3291 9.77393 62.8228 10.2803C62.3247 10.7783 61.4283 10.8945 60.5733 10.8945H47.0679ZM46.6279 9.93164H61.0215C61.586 9.93164 61.918 9.84863 62.1504 9.61621C62.3828 9.38379 62.4742 9.05176 62.4742 8.479V4.75195C62.4742 4.1792 62.3828 3.84717 62.1504 3.61475C61.918 3.38232 61.586 3.29932 61.0215 3.29932H46.6528C46.0635 3.29932 45.7231 3.38232 45.499 3.61475C45.2666 3.84717 45.1753 4.1875 45.1753 4.76855V8.479C45.1753 9.05176 45.2666 9.38379 45.499 9.61621C45.7314 9.84863 46.0635 9.93164 46.6279 9.93164ZM65.9024 8.76123C66.5581 8.71973 67.438 7.88135 67.438 6.61133C67.438 5.34961 66.5581 4.51123 65.9024 4.46973V8.76123Z" fill="var(--fill-0, #111111)"/>
</g>
</g>
<defs>
<clipPath id="clip0_0_4">
<rect width="16" height="12" fill="white" transform="translate(22.8682 1)"/>
</clipPath>
<clipPath id="clip1_0_4">
<rect width="25" height="12" fill="white" transform="translate(42.8682 1)"/>
</clipPath>
</defs>
</svg>
