<svg preserveAspectRatio="none" width="100%" height="100%" overflow="visible" style="display: block;" viewBox="0 0 133.451 129.787" fill="none" xmlns="http://www.w3.org/2000/svg">
<path id="Vector" d="M0 30.1026V13.3682H56.243L53.3049 30.1026H0ZM56.818 100.423C38.0753 104.608 19.1035 107.692 0 109.657V92.9478C19.5256 90.7485 39.4918 88.1042 59.7519 83.5544L56.818 100.423ZM6.31264 72.5325C1.90974 72.5325 -0.587623 69.4475 0.734517 63.8694L16.151 0.00840267H34.5013L20.8477 55.7939H55.6428L52.7047 72.5325H6.31264ZM26.5727 129.787V65.926L29.3639 60.9313V40.6712H44.3354V129.787H26.5727ZM61.5147 41.4058H133.451L130.513 58.1443H58.5766L61.5147 41.4058ZM64.7424 13.3682H129.485L126.547 30.1026H61.8085L64.7424 13.3682ZM72.3772 99.2437C75.735 101.002 79.2774 101.149 82.6562 100.562C90.7275 99.0968 97.9216 93.6614 104.087 86.4715H73.5524C69.7372 86.4715 66.6522 83.3865 67.8274 77.8084L84.5618 0H103.353L87.6467 69.8798H124.788C129.636 69.8798 131.835 74.5765 129.636 79.2774C124.18 91.0297 112.31 102.912 97.9216 109.498C105.997 112.289 117.741 113.166 127.139 112.142L122.001 129.77C98.803 129.036 79.8651 123.474 67.5336 112.889L72.3772 99.2437Z" fill="var(--fill-0, black)"/>
</svg>
