<svg preserveAspectRatio="none" width="100%" height="100%" overflow="visible" style="display: block;" viewBox="0 0 133.476 129.787" fill="none" xmlns="http://www.w3.org/2000/svg">
<path id="Vector" d="M0.0168053 30.1026V13.3682H56.2598L53.3217 30.1026H0.0168053ZM56.818 100.423C38.0753 104.608 19.1034 107.692 0 109.657V92.9478C19.5256 90.7485 39.4918 88.1042 59.7519 83.5544L56.818 100.423ZM6.31266 72.5325C1.90976 72.5325 -0.587572 69.4475 0.734517 63.8694L16.151 0.00838986H34.5013L20.8476 55.7939H55.6428L52.7047 72.5325H6.31266ZM26.5979 129.787V65.926L29.3891 60.9313V40.6712H44.3648V129.787H26.5979ZM61.5399 41.4058H133.476L130.538 58.1443H58.5934L61.5399 41.4058ZM64.7675 13.3682H129.514L126.576 30.1026H61.8253L64.7675 13.3682ZM72.3939 99.2437C75.7727 101.002 79.2942 101.149 82.673 100.562C90.7485 99.0968 97.9383 93.6614 104.108 86.4715H73.5691C69.7539 86.4715 66.6689 83.3865 67.8441 77.8084L84.5785 0H103.374L87.6634 69.8798H124.813C129.661 69.8798 131.86 74.5765 129.661 79.2774C124.23 91.0297 112.335 102.912 97.9467 109.498C106.022 112.289 117.766 113.166 127.164 112.142L122.026 129.77C98.8281 129.036 79.8902 123.474 67.5587 112.889L72.3939 99.2437Z" fill="var(--fill-0, black)"/>
</svg>
