<svg preserveAspectRatio="none" width="100%" height="100%" overflow="visible" style="display: block;" viewBox="0 0 68.2337 17.8181" fill="none" xmlns="http://www.w3.org/2000/svg">
<g id="Group">
<path id="Vector" fill-rule="evenodd" clip-rule="evenodd" d="M35.2824 1.73723L43.7802 1.73736V3.93389H31.4328L30.4764 6.74076C34.4591 6.74085 38.9606 6.74093 41.9326 6.74102L41.9258 7.41882L41.9235 15.32L41.923 17.7243C41.9169 17.741 41.9108 17.7587 41.9047 17.7754L41.8963 17.808C40.7594 17.1737 37.5461 16.1751 34.3342 16.9765C34.6081 16.2393 34.8601 15.3229 35.1338 14.5856C36.3029 14.3981 38.2528 14.4471 39.8792 14.7293L39.8809 8.95566L29.7275 8.9388L26.7258 17.7478L24.2029 17.7576L28.8645 3.93389H23.7048V1.73706L32.7042 1.7372L33.3457 0H35.924L35.2824 1.73723ZM11.3508 1.82882C14.513 1.82887 17.6789 1.82891 20.8885 1.82891L20.883 1.83813H20.8846L19.7237 5.20098H18.3091V7.1799H18.3067V8.4068H18.3091V10.3769H3.96872V11.4266L18.7332 11.4268V11.4304H18.8536V17.803H16.6184V16.8538H3.96872V17.8029H1.73364V6.30566H1.74438V5.20095H0V3.20215H0.010498V1.82861C2.95484 1.82866 5.8625 1.82871 8.7642 1.82877L9.42194 0.0476074H12.0086L11.3508 1.82882ZM16.6184 14.7268V13.3832H3.96872V14.7266L16.6184 14.7268ZM3.96872 8.40653L16.0715 8.40675V7.1799H3.96872V8.40653ZM68.1771 6.87408L65.6761 6.86465L65.6715 6.85537H58.4982L58.4909 6.87025L55.99 6.87969L59.1549 0.383545L61.6865 0.384549L61.6848 0.387798C62.0602 0.387822 62.4517 0.387848 62.8081 0.387874L64.9441 0.381348L68.1771 6.87408ZM63.4294 2.40396H60.6915L59.4916 4.83916L64.656 4.83935L63.4294 2.40396ZM54.7912 6.4836C54.9819 6.4836 55.1642 6.4836 55.335 6.4836L55.2992 8.52706H55.295L55.2931 15.4056L55.292 17.7343C55.2859 17.751 55.2799 17.7688 55.2738 17.7854L55.2654 17.8181C54.1285 17.1836 50.9152 16.1851 47.7034 16.9866C47.9771 16.2493 48.2292 15.333 48.503 14.5956C49.6726 14.408 51.6237 14.4571 53.2505 14.7397L53.2512 12.4256H47.2266V10.3818C47.2266 10.3818 51.2259 10.382 53.2517 10.3821L53.2523 8.52706H50.8531V8.53181L48.8103 8.53131L48.8121 3.54395L50.8549 3.54455L50.8539 6.48347C51.4134 6.48349 52.0752 6.48352 52.7484 6.48354L52.7495 2.54914H47.2715V0.505371C47.2715 0.505371 50.4173 0.505478 52.75 0.505575V0.501709L54.7928 0.502211V0.505672L54.8003 0.505672V2.54914H54.7923L54.7912 6.4836ZM2.23518 4.02625H17.5876L17.1933 5.16874L2.23518 5.16847V4.02625ZM59.328 14.2055L57.2852 14.205L57.2866 7.87524L59.3294 7.87575L59.328 14.2055ZM62.9496 14.2055L60.9067 14.2049L60.9081 7.87524L62.9509 7.87575L62.9496 14.2055ZM64.6619 14.187L66.7047 14.1875L66.7061 7.87585L64.6632 7.87524L64.6619 14.187ZM68.2337 15.2713V17.3148H55.9583V15.271L68.2337 15.2713Z" fill="var(--fill-0, white)"/>
</g>
</svg>
