<svg preserveAspectRatio="none" width="100%" height="100%" overflow="visible" style="display: block;" viewBox="0 0 34.1168 8.90904" fill="none" xmlns="http://www.w3.org/2000/svg">
<g id="Group">
<path id="Vector" fill-rule="evenodd" clip-rule="evenodd" d="M17.6412 0.868617L21.8901 0.868681V1.96695H15.7164L15.2382 3.37038C17.2296 3.37042 19.4803 3.37047 20.9663 3.37051L20.9629 3.70941L20.9617 7.66L20.9615 8.86216C20.9584 8.87049 20.9554 8.87937 20.9523 8.8877L20.9482 8.90401C20.3797 8.58684 18.7731 8.08754 17.1671 8.48827C17.304 8.11966 17.4301 7.66146 17.5669 7.2928C18.1514 7.19903 19.1264 7.22353 19.9396 7.36466L19.9404 4.47783L14.8637 4.4694L13.3629 8.87391L12.1014 8.87878L14.4322 1.96695H11.8524V0.86853L16.3521 0.868598L16.6729 0H17.962L17.6412 0.868617ZM5.6754 0.914409C7.2565 0.914436 8.83947 0.914457 10.4442 0.914457L10.4415 0.919067H10.4423L9.86187 2.60049H9.15455V3.58995H9.15336V4.2034H9.15455V5.18844H1.98436V5.71328L9.36658 5.71341V5.71521H9.4268V8.9015H8.3092V8.42692H1.98436V8.90146H0.866821V3.15283H0.872192V2.60047H0V1.60107H0.00524902V0.914307C1.47742 0.914328 2.93125 0.914357 4.3821 0.914385L4.71097 0.0238037H6.00428L5.6754 0.914409ZM8.3092 7.36341V6.69158H1.98436V7.3633L8.3092 7.36341ZM1.98436 4.20327L8.03577 4.20338V3.58995H1.98436V4.20327ZM34.0886 3.43704L32.8381 3.43232L32.8357 3.42769H29.2491L29.2454 3.43513L27.995 3.43984L29.5775 0.191772L30.8432 0.192274L30.8424 0.193899C31.0301 0.193911 31.2259 0.193924 31.404 0.193937L32.4721 0.190674L34.0886 3.43704ZM31.7147 1.20198H30.3457L29.7458 2.41958L32.328 2.41967L31.7147 1.20198ZM27.3956 3.2418C27.491 3.2418 27.5821 3.2418 27.6675 3.2418L27.6496 4.26353H27.6475L27.6465 7.70282L27.646 8.86713C27.643 8.87551 27.64 8.8844 27.6369 8.89268L27.6327 8.90904C27.0642 8.59181 25.4576 8.09257 23.8517 8.4933C23.9886 8.12463 24.1146 7.66649 24.2515 7.29782C24.8363 7.20398 25.8119 7.22856 26.6253 7.36986L26.6256 6.2128H23.6133V5.19092C23.6133 5.19092 25.613 5.191 26.6259 5.19105L26.6261 4.26353H25.4266V4.2659L24.4052 4.26565L24.4061 1.77197L25.4275 1.77227L25.4269 3.24173C25.7067 3.24175 26.0376 3.24176 26.3742 3.24177L26.3747 1.27457H23.6357V0.252686C23.6357 0.252686 25.2087 0.252739 26.375 0.252788V0.250854L27.3964 0.251105V0.252836L27.4001 0.252836V1.27457H27.3961L27.3956 3.2418ZM1.11759 2.01312H8.79382L8.59663 2.58437L1.11759 2.58423V2.01312ZM29.664 7.10274L28.6426 7.10249L28.6433 3.93762L29.6647 3.93787L29.664 7.10274ZM31.4748 7.10274L30.4534 7.10244L30.454 3.93762L31.4754 3.93787L31.4748 7.10274ZM32.3309 7.0935L33.3523 7.09375L33.3531 3.93792L32.3316 3.93762L32.3309 7.0935ZM34.1168 7.63565V8.65738H27.9791V7.6355L34.1168 7.63565Z" fill="var(--fill-0, white)"/>
</g>
</svg>
